<?xml version="1.0" encoding="utf-8"?>
<!-- Generator: Adobe Illustrator 18.1.1, SVG Export Plug-In . SVG Version: 6.00 Build 0)  -->
<svg version="1.1" id="Capa_1" xmlns="http://www.w3.org/2000/svg" xmlns:xlink="http://www.w3.org/1999/xlink" x="0px" y="0px"
	 viewBox="0 0 1400 980" enable-background="new 0 0 1400 980" xml:space="preserve">
<g>
	<path fill="#151D38" d="M294,854.5c1.3-0.7,2.7-0.8,4.2-0.8c38.8,0,77.6,0,116.4,0c0.6,0,1.3,0,1.9,0c0.5,0,1.2,0.3,1.5-0.4
		c0.2-0.5-0.5-0.8-0.8-1.1c-3.2-3.2-4.8-7.1-4.7-11.7c0-0.6,0-1.1,0-1.7c0-126.8,0-253.6,0-380.4c0-3.7,0-3.7,3.7-3.7
		c16.4,0,32.8,0,49.2,0c0.6,0,1.1,0,1.7,0c0.4,0,1,0.2,1.2-0.4c0.1-0.4-0.3-0.7-0.6-1c-4.3-5.3-3.2-13.2,2.1-17
		c1.1-0.8,0.8-1.2-0.1-1.9c-6.4-5.4-6.4-13.7,0.1-19c1-0.8,0.8-1.1-0.1-1.8c-6.4-5.3-6.4-13.7,0-19c1-0.8,1-1.1,0-1.9
		c-6.4-5.3-6.4-13.7,0-19c0.9-0.7,1.1-0.9,0.1-1.8c-6.5-5.3-6.5-13.6-0.1-19c1.1-0.9,1.1-0.9-0.1-1.9c-7.2-6-5.7-16.9,2.7-20.5
		c1.6-0.7,3.2-0.9,4.9-0.9c4.6,0,9.1,0,13.7,0c29,0,58.1,0,87.1,0c9.7,0,16.7,4.5,20.8,13.2c5,10.8,0.5,23.3-10.1,29
		c-0.5,0.3-1.5,0.4-1.5,1c0,0.6,1,0.7,1.5,1c7.8,4.3,12,10.9,12,19.9c0,9-4.3,15.7-12.2,20c-0.3,0.2-0.7,0.4-1.1,0.5
		c-0.4,0.2-0.3,0.4,0,0.6c0.4,0.2,0.8,0.4,1.3,0.7c14.6,7.8,16.4,27.3,3.5,37.6c-0.4,0.3-0.8,0.6-1.1,0.9c-0.1,0.1-0.2,0.2-0.2,0.4
		c0,0.3,0.3,0.4,0.5,0.4c0.6,0,1.3,0,1.9,0c5.5,0,11,0,16.6,0c3.2,0,2.9,0.2,2.9-2.8c0-21.5,0-43,0-64.6c0-9.6,0-19.2,0-28.8
		c0-0.6,0-1.3,0-1.9c0-1,0.6-1.6,1.6-1.7c0.7-0.1,1.4,0,2.2,0c29.1,0,58.2,0,87.4,0c3.8,0,3.8,0,3.8,3.9c0,13.1,0,26.2,0,39.4
		c0,0.6,0,1.3,0,1.9c0,0.1,0,0.4,0.1,0.4c0.3,0.1,0.4-0.1,0.5-0.3c0.4-0.7,0.7-1.4,1-2.2c2.5-5.4,5.1-10.7,7.2-16.2
		c2.6-7.1,4-14.5,4.2-22c0-0.9,0.1-1.8-1.1-2c-0.9-0.1-1.1-0.9-1.1-1.6c0-2.9,0-5.8,0-8.6c0-1.3,0.6-2,1.9-1.9
		c1.1,0.1,1.3-0.5,1.3-1.5c0-2.3,0.1-4.6,0-7c-0.1-3.3,1.5-5.8,5.5-5.6c2.8,0.2,5.6,0,8.4,0c3.3,0,4.8,1.5,4.9,4.8
		c0.1,2.4,0,4.8,0,7.2c0,1.1,0,2.1,1.6,2c1.2-0.1,1.7,0.7,1.7,1.8c0,2.9,0,5.8,0,8.6c0,0.8-0.2,1.5-1.1,1.6c-1.3,0.2-1.2,1-1.2,1.9
		c0.2,8.6,1.9,17,5.3,24.9c2.6,5.9,5.3,11.8,7.9,17.7c5.3,11.9,8,24.4,9,37.3c0.2,2.3,0.3,4.6,0.5,6.9c0.2,2.5-0.3,4.7-1.7,6.8
		c-0.7,1.1-0.6,1.2,0.8,1.3c0.6,0,1.3,0,1.9,0c15.4,0,30.9,0,46.3,0c0.6,0,1.1,0,1.7,0c1.8,0.1,1.8,0.1,1.9,1.9c0,0.7,0,1.4,0,2.2
		c0,130.4,0,260.8,0,391.2c0,4.1-0.6,3.6,3.5,3.6c19.3,0,38.6,0,57.8,0c0.6,0,1.1,0,1.7,0c1.8-0.1,1.8-0.1,1.7-1.7
		c-0.7-7.9-1.3-15.8-2-23.7c-0.7-8.7-1.5-17.4-2.2-26.1c-0.9-10.6-1.8-21.2-2.7-31.8c-0.7-8.4-1.4-16.7-2.1-25.1
		c-0.9-10.7-1.8-21.4-2.7-32c-0.7-8-1.4-16.1-2-24.1c-0.9-10.6-1.7-21.2-2.6-31.8c0-0.4-0.1-0.8-0.1-1.2c0-1.1,0.5-1.8,1.7-1.9
		c0.6,0,1.1,0,1.7,0c52.6,0,105.1,0,157.7,0c0.3,0,0.6,0,1,0c2.1,0.1,2.5,0.5,2.3,2.6c-0.8,10-1.7,19.9-2.6,29.9
		c-0.7,8.4-1.4,16.9-2.1,25.3c-0.9,10.6-1.8,21.2-2.7,31.8c-0.7,8.4-1.4,16.7-2.1,25.1c-0.9,10.7-1.8,21.4-2.7,32
		c-0.7,8.2-1.4,16.4-2.1,24.6c-0.7,8.5-1.4,17.1-2.1,25.6c-0.2,2.4-0.5,2.4,2.3,2.4c6,0,12,0,18,0c14,0,28,0,42,0
		c1.1,0,2.3-0.2,3.1,0.8c0,0.5,0,1,0,1.4c-1,1.2-2.3,0.8-3.6,0.8c-111.5,0-223,0-334.4,0c-22,0-44,0-66,0c-0.7,0-1.4,0-2.2,0
		c-0.9,0-0.9,0.4-0.5,1.1c0.3,0.4,0.5,0.8,0.8,1.2c3,5.5,0.4,12.3-5.4,14.4c-1.4,0.5-2.9,0.6-4.5,0.6c-15,0-29.9,0-44.9,0
		c-0.7,0-1.4,0-2.2,0c-3.3,0.2-6.1,2.7-6.6,5.9c-0.6,3.5,1.4,6.8,4.7,8c1,0.4,2,0.4,3.1,0.5c4.7,0.3,8.6,3.8,9.4,8.5
		c0.8,4.6-1.8,9.2-6.1,11.1c-0.8,0.3-1.7,0.5-2.4,1c-20.8,0-41.6,0-62.4,0c-1.2-0.6-2.5-1-3.7-1.7c-3.9-2.2-5.8-6.8-4.8-11.1
		c1-4.4,4.9-7.7,9.4-7.8c2.2-0.1,4.5,0.1,6.7-0.1c3.5-0.2,6.4-3,6.7-6.4c0.4-3.6-1.9-6.8-5.4-7.8c-0.9-0.2-1.9-0.2-2.9-0.2
		c-5.8,0-11.7,0.1-17.5,0c-7.8-0.2-12.4-8.4-8.7-15.2c1.2-2.1,1.2-2.1-1.2-2.1c-0.6,0-1.3,0-1.9,0c-77.5,0-154.9,0-232.4,0
		c-1.5,0-2.9-0.1-4.1-0.9C294,855.4,294,855,294,854.5z"/>
	<path fill="#CED8DC" d="M744.8,670.1c0-60.2,0-120.5,0-180.7c0-3.5,0.3-3-3.1-3c-107.7,0-215.3,0-323,0c-3.6,0-3.2-0.5-3.2,3.1
		c0,116.5,0,233.1,0,349.6c0,0.9,0,1.8,0,2.6c0.3,5.3,3.9,9.7,8.9,11.4c1.8,0.6,3.6,0.6,5.5,0.6c103.9,0,207.8,0,311.7,0
		c3.7,0,3.2,0.4,3.2-3.1C744.8,790.4,744.8,730.2,744.8,670.1z"/>
	<path fill="#414649" d="M812.2,655.8c0-64.9,0-129.9,0-194.8c0-3.4,0.3-3.1-3.1-3.1c-19.1,0-38.2,0-57.3,0c-4,0-4,0-4,3.9
		c0,129.5,0,259,0,388.5c0,0.6,0,1.3,0,1.9c-0.1,1.1,0.4,1.6,1.6,1.5c0.6,0,1.3,0,1.9,0c19.1,0,38.2,0,57.3,0c4.1,0,3.6,0.4,3.6-3.6
		C812.2,785.3,812.2,720.6,812.2,655.8z"/>
	<path fill="#7E8589" d="M580.3,457.9c-53.7,0-107.3,0-161,0c-0.6,0-1.3,0-1.9,0c-2,0-2,0-2,2c0,6.7,0,13.4,0,20.2
		c0,3.9-0.5,3.4,3.5,3.4c107.5,0,215,0,322.5,0c0.5,0,1,0,1.4,0c1.9,0,2,0,2-2c0-6.8,0-13.6,0-20.4c0-3.6,0.5-3.1-3.2-3.1
		C687.8,457.9,634.1,457.9,580.3,457.9z"/>
	<path fill="#AEDEF8" d="M634.1,406.1c0,15.3,0,30.6,0,45.8c0,3.1-0.2,2.8,2.9,2.8c20.2,0,40.5,0,60.7,0c0.6,0,1.1,0,1.7,0
		c1,0,1.1-0.4,0.5-1.2c-1.3-1.9-1.9-4-1.8-6.3c0.4-12.4,2.2-24.5,6.2-36.3c0.3-0.9,0.6-1.8,0.6-2.8c0-16.2,0-32.3,0-48.5
		c0-0.1,0-0.2,0-0.2c0.2-1.2-0.5-1.6-1.6-1.5c-0.5,0-1,0-1.4,0c-21.6,0-43.2,0-64.8,0c-0.5,0-1,0-1.4,0c-1.2-0.1-1.6,0.5-1.5,1.6
		c0,0.6,0,1.3,0,1.9C634.1,376.4,634.1,391.3,634.1,406.1z"/>
	<path fill="#AEDEF8" d="M602.2,856.7c-19.3,0-38.6,0-57.8,0c-0.8,0-1.6,0-2.4,0c-3.5,0.2-6.4,3-6.6,6.4c-0.3,3.7,1.9,6.8,5.4,7.7
		c1,0.3,2.1,0.3,3.1,0.3c5.8,0,11.7-0.1,17.5,0.1c5.6,0.1,9.6,4.6,9.6,10.2c0,5.5-4.3,9.9-9.8,10c-1.7,0-3.4,0-5,0
		c-1.1,0-2.2,0.1-3.3,0.4c-3,1-5,3.9-5,6.9c0.1,3.2,2.3,6.1,5.4,6.8c0.9,0.2,1.9,0.2,2.9,0.2c19.1,0,38.2,0,57.4,0
		c0.6,0,1.1,0,1.7,0c4.3-0.4,7.3-4.6,6.2-8.8c-0.9-3.5-3.4-5.3-7.7-5.6c-4.8-0.3-8.6-3.8-9.3-8.5c-0.7-5,1.9-9.5,6.6-11.2
		c1.5-0.6,3.1-0.6,4.7-0.6c14.9,0,29.8,0,44.6,0c1.2,0,2.4,0,3.6-0.3c3.2-0.9,5.6-4.2,5.3-7.4c-0.3-3.5-3.1-6.3-6.5-6.6
		c-0.9-0.1-1.8,0-2.6,0C640.8,856.7,621.5,856.7,602.2,856.7z"/>
	<path fill="#FCE2D8" d="M543.9,374.4c-11.9,0-23.8,0-35.8,0c-2.2,0-2.2,0-2.2,2.2c0,4.5,0,9,0,13.4c0,2.1,0,2.1,2.1,2.2
		c0.5,0,1,0,1.4,0c22.3,0,44.6,0,67,0c0.7,0,1.4,0,2.2,0c0.9,0.1,1.5,0.6,1.4,1.6c0,0.8-0.6,1.3-1.4,1.3c-0.7,0-1.4,0-2.2,0
		c-22.6,0-45.1,0-67.7,0c-2.7,0-2.8-0.4-2.8,2.7c0,4.1,0,8.2,0,12.2c0,3.3-0.3,3,2.9,3c22.6,0,45.1,0,67.7,0c1.3,0,2.6-0.1,3.8-0.2
		c12-1.1,20.2-13.1,16.7-24.7c-2.5-8.3-9.8-13.8-18.6-13.9C566.9,374.4,555.4,374.4,543.9,374.4z"/>
	<path fill="#FCE2D8" d="M543.8,332.7c-11.5,0-23,0-34.6,0c-3.8,0-3.3-0.6-3.4,3.2c0,3.8,0,7.7,0,11.5c0,3.6-0.3,3,3.1,3
		c22.5,0,45,0,67.4,0c0.8,0,1.6,0,2.4,0.1c0.8,0.2,1.2,0.8,1.1,1.6c-0.1,0.7-0.5,1.2-1.3,1.2c-0.7,0-1.4,0-2.2,0
		c-22.4,0-44.8,0-67.2,0c-0.6,0-1.3,0-1.9,0c-1.2-0.1-1.5,0.5-1.5,1.6c0,5,0,9.9,0,14.9c0,1.2,0.5,1.6,1.6,1.5c0.6,0,1.1,0,1.7,0
		c22.6,0,45.3,0,67.9,0c0.6,0,1.1,0,1.7,0c10.3-0.4,18.6-8.3,19.1-18.2c0.5-11.3-8.1-20.4-19.4-20.5
		C566.9,332.7,555.3,332.7,543.8,332.7z"/>
	<path fill="#FCE2D8" d="M544.1,416.2c-11.8,0-23.7,0-35.5,0c-2.7,0-2.6-0.3-2.7,2.5c0,4.1,0,8.2,0,12.2c0,3.6-0.2,3,3.1,3
		c22.5,0,44.9,0,67.4,0c0.7,0,1.4,0,2.2,0c0.8,0.1,1.3,0.6,1.3,1.4c0,0.8-0.4,1.4-1.3,1.4c-0.7,0.1-1.4,0-2.2,0
		c-17.3,0-34.6,0-51.8,0c-5.6,0-11.2,0-16.8,0c-1.9,0-2,0-2,2c0,4.6,0,9.3,0,13.9c0,1.9,0.1,1.9,2.1,2c0.3,0,0.6,0,1,0
		c22.7,0,45.4,0,68.1,0c1.1,0,2.2,0,3.4-0.1c9.1-0.7,16.7-8.5,17.4-17.6c0.9-12.2-9.1-21.1-19.4-20.9
		C566.9,416.3,555.5,416.2,544.1,416.2z"/>
	<path fill="#7DA6ED" d="M731.3,454.8c7.6,0,15.2,0,22.8,0c4.6,0,7.5-3,7.4-7.6c0-2.2-0.2-4.3-0.4-6.5c-0.8-10.2-2.6-20.3-6.1-30
		c-2.4-6.7-5.5-13.1-8.5-19.6c-2.7-5.9-5-11.9-6.3-18.3c-0.9-4.4-1.3-8.9-1.6-13.3c0-0.9-0.1-1.6-1.2-1.6c-4.1,0-8.2,0-12.2,0
		c-0.8,0-1.1,0.4-1.2,1.2c0,1.2-0.2,2.4-0.2,3.6c-0.3,5.9-1.4,11.6-3.2,17.2c-1.9,5.9-4.5,11.5-7.2,17c-5.6,11.5-9.5,23.5-11.1,36.3
		c-0.6,4.8-1.1,9.5-1.2,14.3c-0.1,4.1,2.7,7,6.7,7.3c0.7,0.1,1.4,0,2.2,0C717,454.8,724.2,454.8,731.3,454.8z"/>
	<path fill="#AEDEF8" d="M945.8,657.2c-25.2,0-50.4,0-75.6,0c-0.6,0-1.3,0-1.9,0c-1.7,0.1-1.7,0.1-1.6,1.8c0.3,3.7,0.6,7.5,0.9,11.2
		c0.2,3.2,0.2,3.2,3.4,3.2c49.7,0,99.5,0,149.2,0c0.6,0,1.1,0,1.7,0c1.1,0.1,1.6-0.4,1.6-1.5c0.3-4.2,0.7-8.4,1-12.7
		c0.2-2.1,0.1-2.1-2-2.1c-0.6,0-1.1,0-1.7,0C995.8,657.2,970.8,657.2,945.8,657.2z"/>
	<path fill="#7DA6ED" d="M615.7,406.4c0,12.5,0,24.9,0,37.4c0,3.1,0,6.2,0,9.4c0,1.2,0.4,1.7,1.7,1.7c3.5-0.1,7,0,10.5,0
		c3.5,0,3.1,0.3,3.1-3c0-30.2,0-60.4,0-90.6c0-0.5,0-1,0-1.4c0.1-1.2-0.3-1.7-1.6-1.7c-4,0.1-8,0.1-12,0c-1.2,0-1.8,0.3-1.7,1.6
		c0.1,0.6,0,1.3,0,1.9C615.7,376.5,615.7,391.4,615.7,406.4z"/>
	<path fill="#FCE2D8" d="M490.9,362.4c0-2.5,0-5,0-7.4c0-1.1-0.4-1.6-1.5-1.5c-1.4,0.1-2.9,0-4.3,0c-3,0.1-6.1-0.3-9.1,0.2
		c-4.9,0.7-8,4.6-7.8,9.3c0.2,4.6,3.8,8.2,8.6,8.4c4.2,0.2,8.5,0,12.7,0.1c1.2,0,1.5-0.5,1.5-1.6
		C490.8,367.4,490.9,364.9,490.9,362.4z"/>
	<path fill="#FCE2D8" d="M490.9,404.2c0-2.5,0-5,0-7.4c0-1.1-0.4-1.5-1.5-1.5c-4.2,0-8.3,0-12.5,0c-2.4,0-4.5,0.9-6.2,2.7
		c-2.5,2.6-3.2,5.7-2.1,9.1c1.1,3.4,3.6,5.5,7.2,5.9c4.6,0.5,9.3,0.1,13.9,0.2c0.9,0,1.3-0.4,1.3-1.3
		C490.8,409.3,490.9,406.7,490.9,404.2z"/>
	<path fill="#FCE2D8" d="M490.9,383.4c0-2.5,0-5,0-7.4c0-1.1-0.4-1.5-1.5-1.5c-4.2,0.1-8.5-0.1-12.7,0.1c-4.9,0.1-8.6,4.1-8.6,8.9
		c0,4.8,3.7,8.8,8.5,8.9c4.2,0.1,8.5,0,12.7,0.1c1.4,0,1.6-0.6,1.5-1.7C490.8,388.1,490.9,385.8,490.9,383.4z"/>
	<path fill="#FCE2D8" d="M490.9,425.1c0-2.5,0-5,0-7.4c0-1.2-0.4-1.5-1.5-1.5c-4.2,0-8.3,0-12.5,0c-4.9,0.1-8.7,3.8-8.8,8.6
		c-0.1,4.9,3.6,9,8.5,9.1c4.2,0.1,8.5,0,12.7,0c1.1,0,1.6-0.3,1.6-1.5C490.8,430,490.9,427.5,490.9,425.1z"/>
	<path fill="#FCE2D8" d="M490.9,341.8c0-2.6,0-5.1,0-7.7c0-0.8,0-1.4-1.1-1.4c-4.6,0-9.3-0.2-13.9,0.1c-4.5,0.3-7.8,4.3-7.8,8.9
		c0,4.5,3.5,8.5,7.9,8.8c4.5,0.2,9.1,0,13.7,0.1c0.9,0,1.2-0.4,1.2-1.3C490.8,346.7,490.9,344.3,490.9,341.8z"/>
	<path fill="#FCE2D8" d="M490.9,445.9C490.9,445.9,490.9,445.9,490.9,445.9c0-2.6,0-5.1,0-7.7c0-0.9-0.3-1.3-1.2-1.3
		c-4.4,0-8.8-0.2-13.2,0.1c-5,0.3-8.6,4.4-8.3,9.3c0.2,4.8,3.9,8.3,9,8.4c4,0.1,8,0,12,0c1.8,0,1.8-0.1,1.8-1.9
		C490.9,450.5,490.9,448.2,490.9,445.9z"/>
	<path fill="#FFFFFF" d="M731.3,345.6c1.7,0,3.4,0,5,0c0.9,0,1.3-0.3,1.3-1.3c0-2.6,0-5.3,0-7.9c0-1.5-0.4-1.8-1.9-1.8
		c-3,0-5.9-0.1-8.9,0c-1.5,0-1.8,0.4-1.9,1.9c-0.1,2.6,0,5.1,0,7.7c0,1.2,0.5,1.5,1.6,1.4C728.1,345.6,729.7,345.6,731.3,345.6z"/>
	<path fill="#FFFFFF" d="M945.6,772.8c0.2-0.1,0.5-0.2,0.7-0.4c2.3-2,4.5-4,6.8-6c0.7-0.6,0.5-1-0.1-1.5c-2.2-1.9-4.3-3.8-6.4-5.8
		c-0.7-0.6-1.2-0.6-1.8,0c-2.1,1.9-4.3,3.9-6.4,5.8c-0.6,0.5-0.8,0.9-0.1,1.5c2.2,1.9,4.4,3.9,6.6,5.9
		C945.1,772.4,945.3,772.6,945.6,772.8z"/>
	<path fill="#FFFFFF" d="M1012.3,713.3c-0.1-0.1-0.2-0.4-0.4-0.5c-2.3-2.1-4.7-4.1-7-6.2c-0.7-0.6-1.1-0.3-1.6,0.2
		c-2.1,1.9-4.2,3.7-6.3,5.6c-0.5,0.5-0.8,0.9-0.1,1.5c2.3,2,4.6,4,6.8,6.1c0.6,0.5,1,0.6,1.6,0c2.1-1.9,4.3-3.8,6.4-5.7
		C1012,713.9,1012.3,713.8,1012.3,713.3z"/>
	<path fill="#FFFFFF" d="M886.7,720.4c0.2-0.1,0.5-0.2,0.7-0.3c2.4-2.1,4.8-4.2,7.1-6.4c0.6-0.6,0.2-0.9-0.2-1.3
		c-2.1-1.9-4.2-3.7-6.2-5.6c-0.6-0.6-1.1-0.8-1.8-0.1c-2.2,2-4.4,4-6.6,5.9c-0.7,0.6-0.7,1.1,0,1.7c2.1,1.8,4.2,3.7,6.3,5.6
		C886.1,720,886.4,720.2,886.7,720.4z"/>
	<path fill="#FFFFFF" d="M933.9,748.1c-0.2-0.3-0.2-0.5-0.4-0.7c-2.3-2-4.5-4-6.8-6.1c-0.5-0.5-1-0.3-1.5,0.2c-2.2,2-4.4,4-6.6,5.9
		c-0.7,0.6-0.6,1,0,1.5c2.2,1.9,4.3,3.8,6.4,5.7c0.6,0.5,1,0.6,1.7,0c2.2-2,4.4-3.9,6.6-5.9C933.6,748.6,933.7,748.3,933.9,748.1z"
		/>
	<path fill="#FFFFFF" d="M973.2,748.3c-0.2-0.2-0.2-0.5-0.4-0.6c-2.3-2.1-4.6-4.2-7-6.2c-0.5-0.5-1-0.3-1.5,0.1
		c-2.1,1.9-4.3,3.8-6.4,5.7c-0.6,0.5-0.7,1-0.1,1.5c2.2,2,4.4,3.9,6.6,5.9c0.6,0.5,1.1,0.5,1.7,0c2.1-1.9,4.3-3.8,6.4-5.7
		C972.8,748.8,973,748.5,973.2,748.3z"/>
	<path fill="#FFFFFF" d="M914.3,730.5c-0.2-0.2-0.2-0.3-0.3-0.5c-2.3-2-4.5-4-6.8-6.1c-0.6-0.5-1-0.2-1.4,0.2c-2.3,2-4.5,4-6.8,6.1
		c-0.5,0.5-0.6,0.8,0,1.3c2.2,1.9,4.4,3.9,6.6,5.9c0.6,0.5,1,0.3,1.4-0.1c2.3-2,4.5-4.1,6.8-6.1C914,731,914.2,730.7,914.3,730.5z"
		/>
	<path fill="#FFFFFF" d="M985.1,737.7c0.2-0.1,0.4-0.2,0.6-0.4c2.2-2,4.4-3.9,6.6-5.9c0.8-0.7,0.2-1.1-0.3-1.5
		c-2.1-1.9-4.3-3.8-6.4-5.7c-0.8-0.7-1.3-0.6-2,0c-1.9,1.8-3.9,3.5-5.9,5.3c-0.7,0.6-1,1.1-0.1,1.9c2.2,1.9,4.3,3.8,6.4,5.7
		C984.4,737.4,984.6,737.7,985.1,737.7z"/>
	<path fill="#FFFFFF" d="M934,783.1c-0.1-0.2-0.2-0.5-0.3-0.6c-2.3-2.1-4.6-4.1-6.9-6.2c-0.6-0.5-1-0.3-1.4,0.2
		c-2.1,1.9-4.3,3.8-6.4,5.7c-0.6,0.6-0.6,1,0,1.6c2.2,1.9,4.4,3.9,6.6,5.9c0.5,0.5,1,0.4,1.4,0c2.2-2,4.4-3.9,6.6-5.9
		C933.7,783.5,933.8,783.3,934,783.1z"/>
	<path fill="#FFFFFF" d="M965.2,790c0.2-0.1,0.4-0.2,0.6-0.4c2.2-2,4.4-3.9,6.6-5.9c0.6-0.5,0.7-1,0-1.5c-2.2-1.9-4.3-3.8-6.4-5.7
		c-0.6-0.5-1-0.5-1.6,0c-2.1,1.9-4.3,3.8-6.4,5.7c-0.7,0.6-0.8,1.1,0,1.7c2.1,1.8,4.2,3.7,6.3,5.6C964.5,789.7,964.8,790,965.2,790z
		"/>
	<path fill="#FFFFFF" d="M984.8,772.5c0.2-0.1,0.4-0.2,0.5-0.3c2.3-2,4.5-4,6.8-6c0.6-0.5,0.4-0.9-0.1-1.3c-2.1-1.9-4.3-3.8-6.4-5.7
		c-0.7-0.6-1.2-0.5-1.8,0.1c-2.1,1.9-4.1,3.7-6.2,5.6c-0.7,0.6-0.8,1.1-0.1,1.7c2.1,1.8,4.2,3.7,6.2,5.6
		C984,772.2,984.3,772.5,984.8,772.5z"/>
	<path fill="#FFFFFF" d="M904,774.7c-0.1-0.1-0.2-0.4-0.3-0.5c-2.3-2.1-4.6-4.1-7-6.2c-0.5-0.4-0.8-0.2-1.2,0.1
		c-2.2,2-4.4,3.9-6.6,5.9c-0.6,0.5-0.5,0.9,0,1.4c2.3,2,4.5,4,6.8,6c0.5,0.5,1,0.3,1.4-0.1c2.1-1.9,4.3-3.8,6.4-5.7
		C903.7,775.4,904,775.2,904,774.7z"/>
	<path fill="#FFFFFF" d="M995,781.9c0.3-0.2,0.5-0.3,0.7-0.5c2.3-2,4.5-4,6.8-6c0.6-0.5,0.4-0.9-0.1-1.4c-2.1-1.9-4.3-3.8-6.4-5.7
		c-0.6-0.5-1-0.6-1.6-0.1c-2.2,2-4.4,3.9-6.6,5.9c-0.7,0.6-0.5,1,0.1,1.5c2.1,1.8,4.2,3.7,6.2,5.6
		C994.3,781.5,994.7,781.7,995,781.9z"/>
	<path fill="#FFFFFF" d="M914.4,765.7c0-0.4-0.3-0.6-0.5-0.8c-2.2-2-4.4-3.9-6.6-5.9c-0.6-0.6-1.1-0.4-1.6,0.1
		c-2.1,1.9-4.1,3.7-6.2,5.6c-0.7,0.6-0.9,1-0.1,1.7c2.2,1.9,4.3,3.8,6.4,5.7c0.6,0.5,1,0.6,1.6,0.1c2.2-2,4.4-3.9,6.6-5.9
		C914.1,766,914.2,765.8,914.4,765.7z"/>
	<path fill="#FFFFFF" d="M975.3,799.2c0.2-0.1,0.3-0.1,0.4-0.2c2.4-2.1,4.8-4.2,7.2-6.3c0.5-0.5,0.2-0.8-0.2-1.2
		c-2.1-1.9-4.3-3.8-6.4-5.7c-0.6-0.5-1.1-0.5-1.7,0c-2.2,2-4.4,3.9-6.6,5.9c-0.5,0.5-0.6,0.9,0,1.3c2.2,1.9,4.4,3.9,6.6,5.9
		C974.9,798.9,975.1,799,975.3,799.2z"/>
	<path fill="#FFFFFF" d="M905.2,843.2c0.2-0.1,0.5-0.2,0.6-0.3c2.3-2.1,4.7-4.1,7-6.2c0.5-0.5,0.2-0.8-0.2-1.2
		c-2.2-2-4.4-3.9-6.6-5.9c-0.5-0.5-0.9-0.4-1.4,0c-2.1,1.9-4.3,3.8-6.4,5.7c-0.8,0.7-0.6,1.1,0,1.7c2.1,1.8,4.2,3.7,6.3,5.6
		C904.6,842.8,904.9,843,905.2,843.2z"/>
	<path fill="#FFFFFF" d="M915.9,799.2c0.3-0.2,0.6-0.3,0.8-0.6c2.2-1.9,4.3-3.8,6.4-5.7c0.7-0.6,0.4-1-0.1-1.5
		c-2.1-1.8-4.2-3.7-6.2-5.6c-0.7-0.7-1.3-0.7-2,0c-2,1.8-4,3.6-6.1,5.4c-0.7,0.6-0.8,1,0,1.7c2.2,1.9,4.3,3.8,6.5,5.7
		C915.3,798.8,915.6,799,915.9,799.2z"/>
	<path fill="#FFFFFF" d="M945.6,807.3c0.2-0.1,0.4-0.2,0.6-0.3c2.3-2,4.5-4,6.8-6c0.6-0.5,0.4-0.9-0.1-1.4c-2.2-1.9-4.3-3.8-6.4-5.7
		c-0.5-0.5-1-0.7-1.6-0.1c-2.2,2-4.4,3.9-6.6,5.9c-0.6,0.5-0.4,0.9,0.1,1.4c2.2,2,4.4,3.9,6.6,5.9
		C945.1,807.1,945.4,807.2,945.6,807.3z"/>
	<path fill="#FFFFFF" d="M904,809.7c-0.2-0.2-0.3-0.5-0.5-0.6c-2.2-2-4.4-3.9-6.6-5.9c-0.6-0.6-1.1-0.5-1.6,0.1
		c-2.1,1.9-4.3,3.9-6.4,5.7c-0.7,0.6-0.5,1,0.1,1.5c2.1,1.8,4.2,3.7,6.2,5.6c0.6,0.6,1.1,0.7,1.8,0.1c2.1-1.9,4.3-3.8,6.4-5.7
		C903.7,810.2,903.8,809.9,904,809.7z"/>
	<path fill="#FFFFFF" d="M894.8,852.4c0.2-0.1,0.5-0.2,0.7-0.3c2.3-2,4.5-4,6.8-6.1c0.6-0.5,0.4-0.9-0.1-1.4
		c-2.2-1.9-4.3-3.8-6.4-5.7c-0.6-0.5-1.1-0.5-1.7,0c-2.1,1.9-4.2,3.7-6.3,5.6c-0.7,0.6-0.8,1.1,0,1.7c2.1,1.8,4.2,3.7,6.3,5.6
		C894.3,852.1,894.5,852.2,894.8,852.4z"/>
	<path fill="#FFFFFF" d="M1004.1,845.3c-0.1-0.1-0.1-0.3-0.2-0.4c-2.3-2.1-4.6-4.1-6.9-6.2c-0.5-0.4-0.9-0.2-1.3,0.2
		c-2.2,2-4.4,3.9-6.6,5.9c-0.5,0.5-0.6,0.9,0,1.4c2.2,1.9,4.4,3.9,6.6,5.9c0.5,0.4,0.9,0.5,1.4,0c2.2-2,4.4-3.9,6.6-5.9
		C1003.9,845.9,1004.2,845.7,1004.1,845.3z"/>
	<path fill="#FFFFFF" d="M995,816.7c0.3-0.2,0.6-0.3,0.8-0.5c2.2-2,4.4-3.9,6.6-5.9c0.8-0.7,0.3-1.1-0.2-1.5c-2-1.8-4.1-3.6-6.1-5.4
		c-0.7-0.6-1.2-0.8-2-0.1c-2,1.9-4.1,3.8-6.3,5.6c-0.8,0.6-0.7,1.1,0,1.7c2.1,1.8,4.2,3.7,6.3,5.6
		C994.4,816.3,994.7,816.5,995,816.7z"/>
	<path fill="#FFFFFF" d="M985.9,843.2c0.3-0.2,0.6-0.3,0.8-0.5c2.2-1.9,4.4-3.9,6.6-5.9c0.7-0.6,0.4-1-0.1-1.5
		c-2.1-1.8-4.2-3.7-6.2-5.6c-0.6-0.6-1.1-0.7-1.8,0c-2,1.9-4.1,3.7-6.2,5.6c-0.7,0.6-0.8,1.1,0,1.7c2.1,1.8,4.2,3.7,6.3,5.5
		C985.3,842.8,985.6,843,985.9,843.2z"/>
	<path fill="#FFFFFF" d="M983.5,827c-0.3-0.3-0.4-0.5-0.7-0.7c-2.1-1.9-4.3-3.8-6.4-5.7c-0.6-0.6-1.1-0.5-1.6,0
		c-2.1,1.9-4.3,3.8-6.4,5.7c-0.6,0.6-0.6,1,0,1.5c2.1,1.8,4.2,3.7,6.2,5.6c0.6,0.6,1.1,0.7,1.8,0.1c2.1-1.9,4.3-3.8,6.4-5.7
		C983.1,827.5,983.3,827.2,983.5,827z"/>
	<path fill="#FFFFFF" d="M953.4,730.7c0.1-0.5-0.2-0.6-0.5-0.8c-2.1-1.9-4.3-3.8-6.4-5.8c-0.7-0.7-1.2-0.5-1.8,0.1
		c-2.1,1.9-4.1,3.7-6.3,5.6c-0.6,0.5-0.7,0.9-0.1,1.5c2.2,1.9,4.3,3.8,6.4,5.8c0.6,0.5,1,0.6,1.6,0.1c2.2-2,4.4-3.9,6.6-5.9
		C953.2,731,953.3,730.8,953.4,730.7z"/>
	<path fill="#FFFFFF" d="M915.5,820.1c-0.1,0.1-0.3,0.1-0.4,0.2c-2.3,2.1-4.7,4.1-7,6.2c-0.5,0.5-0.2,0.9,0.2,1.2
		c2.2,2,4.4,3.9,6.6,5.9c0.5,0.5,1,0.4,1.5-0.1c2.1-1.9,4.3-3.8,6.4-5.7c0.7-0.6,0.6-1,0-1.6c-2.2-1.9-4.3-3.8-6.4-5.7
		C916.1,820.3,915.9,820,915.5,820.1z"/>
	<path fill="#FFFFFF" d="M887,741.1c-0.3,0.2-0.6,0.4-0.8,0.6c-2.2,1.9-4.3,3.8-6.5,5.7c-0.7,0.6-0.5,1,0.1,1.5
		c2.1,1.8,4.2,3.7,6.3,5.6c0.7,0.6,1.2,0.6,1.8,0c2.1-1.9,4.1-3.8,6.3-5.6c0.8-0.7,0.6-1.1-0.1-1.7c-2-1.8-4.1-3.6-6.1-5.4
		C887.6,741.5,887.3,741.3,887,741.1z"/>
	<path fill="#FFFFFF" d="M935.2,816.4c0.5,0,0.7-0.2,0.9-0.4c2.1-1.9,4.3-3.8,6.4-5.7c0.7-0.6,0.5-1-0.1-1.5
		c-2.1-1.8-4.2-3.7-6.2-5.6c-0.8-0.7-1.3-0.6-2,0.1c-1.9,1.8-3.9,3.5-5.9,5.2c-0.8,0.7-0.9,1.1-0.1,1.9c2.1,1.8,4.2,3.7,6.3,5.5
		C934.8,816.1,935,816.2,935.2,816.4z"/>
	<path fill="#FFFFFF" d="M992.3,695.8c0-0.4-0.2-0.6-0.5-0.8c-2.1-1.9-4.3-3.8-6.4-5.7c-0.6-0.5-1.1-0.4-1.7,0.1
		c-2.1,1.9-4.3,3.8-6.4,5.7c-0.7,0.6-0.4,1,0.1,1.5c2.1,1.8,4.2,3.7,6.2,5.6c0.6,0.5,1,0.7,1.6,0.1c2.2-2,4.4-3.9,6.6-5.9
		C992.1,696.1,992.2,695.9,992.3,695.8z"/>
	<path fill="#FFFFFF" d="M914.4,695.8c-0.2-0.3-0.3-0.5-0.5-0.6c-2.2-2-4.4-3.9-6.6-5.9c-0.6-0.6-1.1-0.4-1.6,0.1
		c-2.1,1.9-4.1,3.7-6.3,5.5c-0.8,0.7-0.6,1.1,0.1,1.7c2.1,1.8,4.2,3.7,6.2,5.6c0.5,0.5,1,0.7,1.6,0.1c2.1-1.9,4.3-3.8,6.4-5.7
		C914.1,696.2,914.2,696,914.4,695.8z"/>
	<path fill="#FFFFFF" d="M1004.3,755.1c0.2-0.1,0.5-0.2,0.7-0.3c2.3-2,4.5-4,6.8-6c0.5-0.4,0.4-0.8,0-1.2c-2.2-2-4.4-3.9-6.6-5.9
		c-0.6-0.6-1.1-0.4-1.6,0.1c-2.1,1.9-4.2,3.7-6.3,5.6c-0.7,0.6-0.7,1.1,0,1.7c2.1,1.8,4.2,3.7,6.3,5.6
		C1003.7,754.7,1004,754.9,1004.3,755.1z"/>
	<path fill="#FFFFFF" d="M956.1,802.5c-0.3,0.2-0.6,0.3-0.8,0.5c-2.2,2-4.4,3.9-6.6,5.9c-0.6,0.5-0.4,0.9,0.1,1.4
		c2.1,1.9,4.2,3.7,6.3,5.6c0.7,0.6,1.2,0.6,1.8,0c2-1.8,4-3.6,6.1-5.4c0.7-0.6,1-1.1,0.1-1.9c-2.1-1.8-4.1-3.6-6.1-5.4
		C956.7,802.9,956.4,802.8,956.1,802.5z"/>
	<path fill="#FFFFFF" d="M973,713.1c-0.2-0.3-0.4-0.5-0.6-0.7c-2.1-1.9-4.3-3.8-6.4-5.8c-0.6-0.6-1.1-0.5-1.6,0.1
		c-2.1,1.9-4.1,3.8-6.3,5.6c-0.6,0.6-0.7,0.9,0,1.5c2.1,1.8,4.2,3.7,6.3,5.6c0.6,0.6,1.1,0.7,1.8,0.1c2.1-1.9,4.2-3.7,6.2-5.6
		C972.5,713.7,972.7,713.4,973,713.1z"/>
	<path fill="#FFFFFF" d="M983.3,845.2c-0.1-0.1-0.3-0.4-0.5-0.6c-2.1-1.9-4.2-3.7-6.3-5.6c-0.7-0.6-1.2-0.5-1.8,0.1
		c-2,1.8-4,3.6-6.1,5.4c-0.6,0.6-0.7,1,0,1.5c2.2,1.9,4.3,3.8,6.5,5.7c0.6,0.6,1.1,0.5,1.6-0.1c2.1-1.9,4.2-3.7,6.3-5.6
		C983.2,846,983.5,845.8,983.3,845.2z"/>
	<path fill="#FFFFFF" d="M973,836.1c-0.1-0.1-0.2-0.3-0.4-0.5c-2.3-2-4.5-4-6.8-6c-0.6-0.5-1-0.2-1.4,0.2c-2.1,1.9-4.2,3.7-6.3,5.6
		c-0.6,0.6-0.6,1,0,1.5c2.2,1.9,4.3,3.8,6.4,5.7c0.6,0.5,1.1,0.5,1.7,0c2.1-1.9,4.2-3.7,6.2-5.6C972.8,836.8,973.1,836.6,973,836.1z
		"/>
	<path fill="#FFFFFF" d="M933.8,713.2c0-0.4-0.2-0.7-0.4-0.9c-2.1-1.9-4.3-3.8-6.4-5.7c-0.6-0.6-1.1-0.4-1.6,0.1
		c-2.1,1.9-4.1,3.7-6.3,5.6c-0.7,0.6-0.7,1.1,0,1.7c2,1.8,4.1,3.6,6.1,5.4c0.6,0.6,1.1,0.7,1.8,0.1c2-1.9,4.1-3.7,6.2-5.6
		C933.4,713.7,933.6,713.4,933.8,713.2z"/>
	<path fill="#FFFFFF" d="M925.9,829.2c-0.2,0.1-0.4,0.2-0.5,0.3c-2.3,2.1-4.6,4.1-7,6.2c-0.5,0.5-0.2,0.8,0.2,1.2
		c2.1,1.9,4.3,3.8,6.4,5.7c0.5,0.5,1,0.4,1.5,0c2.2-2,4.4-3.9,6.6-5.9c0.6-0.5,0.5-0.9,0-1.4c-2.2-1.9-4.3-3.8-6.4-5.7
		C926.4,829.5,926.2,829.4,925.9,829.2z"/>
	<path fill="#FFFFFF" d="M945.6,825.5c0.2-0.1,0.4-0.2,0.6-0.3c2.3-2,4.5-4,6.8-6c0.5-0.5,0.3-0.8-0.1-1.2c-2.1-1.9-4.3-3.8-6.4-5.7
		c-0.6-0.5-1-0.6-1.6-0.1c-2.1,1.9-4.3,3.8-6.4,5.7c-0.5,0.4-0.7,0.8-0.1,1.3c2.2,1.9,4.4,3.9,6.6,5.8
		C945.2,825.3,945.4,825.4,945.6,825.5z"/>
	<path fill="#FFFFFF" d="M915.4,852.3c0.3-0.2,0.6-0.4,0.8-0.6c2.2-1.9,4.3-3.8,6.5-5.7c0.7-0.6,0.5-1-0.1-1.5
		c-2-1.8-4.1-3.6-6.1-5.4c-0.8-0.7-1.4-0.5-2,0.1c-1.9,1.8-3.9,3.5-5.9,5.3c-0.7,0.6-1,1.1-0.1,1.9c2.1,1.8,4.1,3.6,6.1,5.4
		C914.8,852,915.1,852.1,915.4,852.3z"/>
	<path fill="#FFFFFF" d="M953.2,695.8c0-0.4-0.2-0.7-0.5-0.9c-2.1-1.9-4.3-3.8-6.4-5.7c-0.5-0.5-1-0.4-1.5,0
		c-2.1,1.9-4.1,3.7-6.3,5.6c-0.8,0.7-0.6,1.1,0.1,1.7c2,1.8,4.1,3.6,6.1,5.4c0.7,0.7,1.2,0.5,1.8-0.1c2-1.8,4-3.6,6.1-5.4
		C952.9,696.3,953.1,696,953.2,695.8z"/>
	<path fill="#FFFFFF" d="M880.1,818.5c0.2,1.1-0.1,2.3,0.8,3.1c1.3,1.3,2.7,2.4,4.1,3.7c0.6,0.5,1.1,0.5,1.7,0
		c2.1-1.9,4.2-3.7,6.3-5.6c0.7-0.6,0.8-1.1,0-1.7c-2.1-1.8-4.2-3.7-6.2-5.6c-0.7-0.6-1.2-0.6-1.8,0c-1.2,1.2-2.5,2.3-3.8,3.3
		C880.2,816.6,879.8,817.4,880.1,818.5z"/>
	<path fill="#FFFFFF" d="M1011,818.7c0.5-1.3-0.1-2.3-1.2-3.2c-1.2-1-2.3-2-3.4-3c-0.6-0.6-1.1-0.7-1.8-0.1
		c-2.1,1.9-4.2,3.8-6.3,5.6c-0.7,0.6-0.8,1.1,0,1.7c1.3,1.1,2.6,2.4,4,3.5c1,0.9,1.9,2.4,3.1,2.4c1.3,0.1,2.1-1.5,3.1-2.3
		c0.3-0.2,0.5-0.4,0.7-0.6C1010.6,821.8,1011.4,820.6,1011,818.7z"/>
	<path fill="#FFFFFF" d="M1002,722.7c-0.2-0.3-0.4-0.6-0.6-0.8c-2.3-2-4.5-4-6.8-6.1c-0.6-0.6-1.1-0.4-1.6,0.1
		c-1.7,1.6-3.4,3.1-5.2,4.6c-0.8,0.7-0.6,1.1,0.1,1.7c2.2,1.9,4.3,3.8,6.4,5.8c0.6,0.6,1.1,0.7,1.8,0.1c1.7-1.6,3.5-3.1,5.2-4.6
		C1001.6,723.2,1001.8,723,1002,722.7z"/>
	<path fill="#FFFFFF" d="M904,721.4c-0.1-0.5-0.4-0.7-0.7-1c-1.7-1.5-3.4-3-5-4.5c-0.7-0.6-1.1-0.6-1.8,0c-2.2,2-4.4,4-6.6,5.9
		c-0.6,0.5-0.7,0.9,0,1.5c1.8,1.6,3.6,3.2,5.4,4.8c0.5,0.4,0.9,0.5,1.4,0.1c2.3-2.1,4.6-4.2,7-6.2
		C903.8,721.8,903.9,721.6,904,721.4z"/>
	<path fill="#FFFFFF" d="M943.1,844.6c-0.2-0.3-0.3-0.5-0.4-0.6c-2-1.8-3.9-3.5-5.9-5.2c-0.5-0.5-1-0.3-1.5,0.1
		c-2.1,1.9-4.3,3.8-6.4,5.7c-0.6,0.6-0.6,1,0,1.5c1.9,1.6,3.7,3.3,5.5,4.9c0.6,0.5,1,0.5,1.6,0c2.1-1.9,4.3-3.8,6.4-5.7
		C942.7,845.1,942.9,844.8,943.1,844.6z"/>
	<path fill="#FFFFFF" d="M870.6,705.2c0,0.6,0.2,1.1,0.6,1.5c1.5,1.3,3,2.6,4.5,4c0.6,0.6,1.1,0.4,1.6-0.1c2.2-2,4.4-4,6.6-5.9
		c0.6-0.5,0.8-0.9,0.1-1.5c-1.8-1.6-3.6-3.2-5.4-4.8c-0.6-0.6-1.1-0.4-1.6,0.1c-1.9,1.7-3.8,3.4-5.7,5.1
		C870.7,704,870.4,704.5,870.6,705.2z"/>
	<path fill="#FFFFFF" d="M962.9,845.4c-0.2-0.3-0.3-0.5-0.4-0.6c-2.3-2-4.5-4-6.8-6c-0.6-0.5-1-0.2-1.4,0.2
		c-1.8,1.6-3.7,3.3-5.5,4.9c-0.6,0.5-0.7,1,0,1.5c2.2,1.9,4.3,3.8,6.4,5.7c0.6,0.5,1,0.5,1.6,0c1.8-1.7,3.7-3.3,5.5-4.9
		C962.5,845.9,962.7,845.6,962.9,845.4z"/>
	<path fill="#FFFFFF" d="M982.5,740c-0.2-0.3-0.3-0.5-0.5-0.6c-2.3-2.1-4.6-4.1-7-6.2c-0.5-0.5-0.9-0.3-1.4,0.1
		c-1.8,1.6-3.6,3.2-5.4,4.8c-0.6,0.6-0.6,1,0,1.6c2.2,2,4.4,3.9,6.6,5.9c0.6,0.5,1,0.5,1.6,0c1.8-1.6,3.6-3.2,5.4-4.8
		C982.1,740.5,982.3,740.2,982.5,740z"/>
	<path fill="#FFFFFF" d="M1020.7,705.1c0.2-0.6-0.2-1.2-0.8-1.7c-1.9-1.6-3.7-3.3-5.5-4.9c-0.7-0.6-1.2-0.6-1.8,0
		c-1.7,1.6-3.4,3.1-5.2,4.6c-0.6,0.5-0.7,1,0,1.5c2.3,2,4.5,4,6.8,6.1c0.5,0.4,0.9,0.5,1.5,0.1c1.5-1.4,3.1-2.8,4.6-4.1
		C1020.6,706.3,1020.6,705.8,1020.7,705.1z"/>
	<path fill="#FFFFFF" d="M966.3,811.6c-0.3,0.2-0.6,0.3-0.8,0.5c-2.2,2-4.4,3.9-6.6,5.9c-0.6,0.5-0.4,0.9,0.1,1.3
		c1.9,1.6,3.7,3.3,5.5,4.9c0.6,0.6,1.1,0.5,1.6-0.1c2.1-1.9,4.3-3.9,6.4-5.7c0.7-0.6,0.5-1-0.1-1.5c-1.8-1.6-3.6-3.2-5.4-4.8
		C966.9,812,966.6,811.9,966.3,811.6z"/>
	<path fill="#FFFFFF" d="M932.9,818.7c-0.2-0.2-0.3-0.5-0.4-0.6c-2.3-2-4.5-4-6.8-6c-0.6-0.5-1-0.3-1.5,0.2
		c-1.8,1.7-3.7,3.3-5.5,4.9c-0.6,0.5-0.5,0.9,0,1.3c2.2,1.9,4.3,3.8,6.4,5.8c0.7,0.6,1.2,0.6,1.8,0c1.8-1.6,3.6-3.2,5.3-4.8
		C932.5,819.2,932.6,819,932.9,818.7z"/>
	<path fill="#FFFFFF" d="M1004.3,790.1c0.1-0.1,0.3-0.1,0.4-0.2c2.4-2.1,4.8-4.2,7.1-6.4c0.5-0.5,0.2-0.9-0.2-1.2
		c-1.8-1.6-3.6-3.2-5.3-4.8c-0.6-0.5-1.1-0.5-1.6,0c-2.2,2-4.4,3.9-6.6,5.9c-0.7,0.6-0.5,1,0.1,1.5c1.7,1.5,3.4,3.1,5.2,4.6
		C1003.6,789.7,1003.8,790.1,1004.3,790.1z"/>
	<path fill="#FFFFFF" d="M893.9,784.1c-0.2-0.3-0.4-0.5-0.6-0.8c-2.1-1.9-4.3-3.8-6.4-5.7c-0.8-0.7-1.3-0.6-2,0
		c-1.6,1.5-3.3,3-5,4.5c-0.7,0.6-0.8,1.1,0,1.7c2.2,1.9,4.3,3.8,6.4,5.7c0.7,0.6,1.2,0.5,1.8-0.1c1.7-1.6,3.4-3.1,5.2-4.6
		C893.4,784.6,893.6,784.4,893.9,784.1z"/>
	<path fill="#FFFFFF" d="M923.5,738.7c-0.1-0.1-0.2-0.4-0.3-0.5c-1.9-1.7-3.8-3.4-5.7-5.1c-0.6-0.5-1-0.2-1.4,0.2
		c-2.2,2-4.4,3.9-6.6,5.9c-0.6,0.5-0.7,0.9,0,1.5c1.8,1.6,3.6,3.2,5.4,4.8c0.6,0.6,1.1,0.5,1.6,0c2.2-2,4.4-3.9,6.6-5.9
		C923.2,739.3,923.5,739.1,923.5,738.7z"/>
	<path fill="#FFFFFF" d="M906.6,807.4c0.2-0.1,0.4-0.2,0.6-0.3c1.9-1.7,3.8-3.4,5.7-5.1c0.6-0.5,0.3-0.9-0.1-1.3
		c-2.2-1.9-4.3-3.8-6.4-5.7c-0.7-0.6-1.2-0.6-1.8,0c-1.7,1.6-3.4,3.1-5.2,4.6c-0.7,0.6-0.8,1.1,0,1.7c2.1,1.8,4.2,3.7,6.3,5.6
		C905.9,807.1,906.1,807.4,906.6,807.4z"/>
	<path fill="#FFFFFF" d="M984.9,807.4c0.2-0.1,0.4-0.2,0.5-0.3c2.3-2,4.5-4,6.8-6c0.6-0.5,0.3-0.9-0.2-1.3c-1.8-1.6-3.6-3.2-5.3-4.8
		c-0.7-0.7-1.2-0.5-1.8,0.1c-2.1,1.9-4.2,3.7-6.3,5.5c-0.7,0.6-0.7,1.1,0,1.7c1.8,1.5,3.5,3.1,5.2,4.6
		C984.1,807.1,984.3,807.4,984.9,807.4z"/>
	<path fill="#FFFFFF" d="M936.6,750.4c-0.4,0-0.7,0.2-0.9,0.4c-2.3,2-4.5,4.1-6.8,6.1c-0.6,0.5-0.4,0.9,0.1,1.4
		c1.7,1.5,3.5,3.1,5.2,4.6c0.7,0.6,1.2,0.5,1.8-0.1c2.1-1.9,4.3-3.8,6.4-5.7c0.6-0.5,0.7-1,0.1-1.5c-1.8-1.6-3.6-3.2-5.4-4.8
		C937,750.6,936.8,750.4,936.6,750.4z"/>
	<path fill="#FFFFFF" d="M1021.1,686.3c-0.1-0.1-0.2-0.3-0.4-0.5c-1.9-1.7-3.8-3.4-5.7-5.1c-0.5-0.5-1-0.3-1.4,0.1
		c-2.1,1.9-4.2,3.8-6.4,5.7c-0.6,0.6-0.6,1,0,1.5c1.8,1.6,3.6,3.2,5.3,4.8c0.6,0.5,1.1,0.5,1.6,0c2.1-1.9,4.3-3.8,6.4-5.7
		C1020.9,687,1021.1,686.8,1021.1,686.3z"/>
	<path fill="#FFFFFF" d="M943.1,827.8c-0.2-0.3-0.4-0.6-0.6-0.8c-2.1-1.9-4.3-3.8-6.4-5.7c-0.6-0.6-1.1-0.4-1.6,0.1
		c-1.8,1.6-3.5,3.2-5.3,4.8c-0.8,0.7-0.6,1.1,0.1,1.7c2,1.8,4.1,3.6,6.1,5.4c0.7,0.6,1.2,0.6,1.8,0c1.8-1.6,3.6-3.2,5.3-4.8
		C942.7,828.3,942.9,828.1,943.1,827.8z"/>
	<path fill="#FFFFFF" d="M876.6,680.4c-0.2,0.1-0.4,0.3-0.7,0.5c-1.8,1.6-3.6,3.2-5.4,4.8c-0.7,0.6-0.6,1,0,1.5
		c2.2,1.9,4.3,3.8,6.4,5.7c0.6,0.5,1,0.5,1.6-0.1c1.8-1.6,3.5-3.2,5.3-4.8c0.7-0.6,0.6-1,0-1.5c-2.2-1.9-4.3-3.8-6.4-5.7
		C877.3,680.6,877.1,680.4,876.6,680.4z"/>
	<path fill="#FFFFFF" d="M962.7,757.4c-0.1-0.1-0.2-0.4-0.3-0.5c-2.3-2.1-4.6-4.2-6.9-6.2c-0.6-0.5-1-0.2-1.4,0.2
		c-1.7,1.5-3.4,3.1-5.2,4.6c-0.6,0.5-0.7,1,0,1.5c2.2,1.9,4.4,3.9,6.6,5.9c0.6,0.5,1.1,0.5,1.6,0c1.7-1.6,3.4-3.1,5.2-4.6
		C962.4,758,962.7,757.8,962.7,757.4z"/>
	<path fill="#FFFFFF" d="M915.8,680.5c-0.1,0.1-0.3,0.2-0.4,0.3c-1.9,1.7-3.8,3.4-5.7,5.1c-0.7,0.7-0.3,1.1,0.2,1.5
		c2,1.8,4.1,3.6,6.1,5.4c0.6,0.6,1.1,0.8,1.8,0.1c1.8-1.6,3.6-3.2,5.4-4.8c0.7-0.6,0.5-1-0.1-1.5c-2.1-1.9-4.2-3.7-6.3-5.6
		C916.5,680.7,916.2,680.5,915.8,680.5z"/>
	<path fill="#FFFFFF" d="M943.1,721.3c-0.1-0.2-0.2-0.3-0.3-0.4c-2-1.8-3.9-3.5-5.9-5.3c-0.5-0.4-0.9-0.3-1.3,0.1
		c-2.2,2-4.4,4-6.6,5.9c-0.6,0.5-0.5,0.9,0,1.4c1.8,1.6,3.6,3.2,5.4,4.8c0.6,0.5,1.1,0.6,1.6,0c2.1-1.9,4.3-3.8,6.4-5.8
		C942.8,721.8,943,721.6,943.1,721.3z"/>
	<path fill="#FFFFFF" d="M897.3,750.3c-0.3,0.2-0.5,0.3-0.7,0.4c-2.3,2-4.5,4-6.8,6.1c-0.5,0.4-0.3,0.8,0.1,1.2
		c1.9,1.6,3.7,3.3,5.6,4.9c0.7,0.6,1.1,0.2,1.6-0.2c2.1-1.9,4.2-3.7,6.3-5.6c0.6-0.5,0.8-0.9,0.1-1.5c-1.8-1.6-3.6-3.2-5.4-4.8
		C897.8,750.6,897.5,750.4,897.3,750.3z"/>
	<path fill="#FFFFFF" d="M955.1,833.9c0.3-0.2,0.6-0.4,0.8-0.6c2.1-1.9,4.2-3.7,6.3-5.6c0.7-0.6,0.6-1-0.1-1.5
		c-1.8-1.6-3.6-3.2-5.4-4.8c-0.7-0.6-1.2-0.5-1.8,0.1c-2,1.8-4,3.6-6.1,5.4c-0.8,0.7-0.6,1.1,0.1,1.7c1.8,1.5,3.5,3.1,5.2,4.6
		C954.4,833.5,954.7,833.7,955.1,833.9z"/>
	<path fill="#FFFFFF" d="M1001.8,757.3c-0.1-0.2-0.3-0.4-0.4-0.6c-2.2-2-4.5-4-6.8-6.1c-0.6-0.5-1-0.3-1.4,0.1
		c-1.8,1.6-3.5,3.2-5.4,4.8c-0.6,0.5-0.6,0.9,0,1.5c2.2,1.9,4.3,3.8,6.4,5.7c0.6,0.5,1,0.6,1.6,0.1c1.8-1.7,3.7-3.3,5.5-4.9
		C1001.6,757.7,1001.7,757.5,1001.8,757.3z"/>
	<path fill="#FFFFFF" d="M974.3,693.5c0.2-0.2,0.5-0.3,0.6-0.4c2.2-2,4.4-3.9,6.6-5.9c0.7-0.6,0.4-1-0.1-1.5c-1.7-1.5-3.5-3-5.2-4.6
		c-0.8-0.7-1.3-0.6-2,0.1c-2,1.8-4,3.6-6,5.4c-0.7,0.6-0.9,1-0.1,1.7c1.8,1.6,3.6,3.2,5.4,4.7C973.8,693.2,974.1,693.3,974.3,693.5z
		"/>
	<path fill="#FFFFFF" d="M1001.7,704c-0.1-0.2-0.2-0.5-0.4-0.6c-1.9-1.7-3.8-3.4-5.7-5.1c-0.5-0.5-1-0.3-1.5,0.1
		c-2.1,1.9-4.3,3.9-6.4,5.8c-0.7,0.6-0.6,1,0,1.5c1.8,1.5,3.5,3.1,5.2,4.6c0.6,0.6,1.1,0.7,1.8,0c2.1-1.9,4.2-3.7,6.2-5.6
		C1001.2,704.5,1001.4,704.3,1001.7,704z"/>
	<path fill="#FFFFFF" d="M904,704.7c-0.1-0.1-0.2-0.3-0.4-0.5c-2.1-1.9-4.3-3.8-6.4-5.8c-0.6-0.5-1-0.6-1.7-0.1
		c-1.8,1.6-3.6,3.2-5.4,4.8c-0.6,0.6-0.6,1,0,1.5c2.2,1.9,4.3,3.8,6.4,5.7c0.5,0.4,0.9,0.6,1.4,0.1c1.8-1.7,3.7-3.3,5.5-5
		C903.8,705.4,904.1,705.2,904,704.7z"/>
	<path fill="#FFFFFF" d="M955.8,732.9c-0.2,0.1-0.4,0.3-0.7,0.5c-2.1,1.9-4.3,3.8-6.4,5.7c-0.7,0.6-0.5,1,0.1,1.5
		c1.7,1.5,3.5,3.1,5.2,4.6c0.6,0.5,1,0.6,1.6,0.1c2.1-1.9,4.3-3.8,6.4-5.7c0.8-0.7,0.6-1.1-0.1-1.7c-1.7-1.5-3.3-3-5-4.4
		C956.6,733.2,956.4,732.9,955.8,732.9z"/>
	<path fill="#FFFFFF" d="M982.1,704.9c-0.1-0.2-0.2-0.4-0.4-0.6c-2.3-2-4.5-4-6.8-6c-0.4-0.4-0.9-0.3-1.3,0.1
		c-1.8,1.6-3.7,3.3-5.5,4.9c-0.5,0.5-0.6,0.9,0,1.3c2.2,1.9,4.4,3.9,6.6,5.9c0.5,0.5,1,0.4,1.4-0.1c1.8-1.7,3.7-3.3,5.5-5
		C981.8,705.3,982,705.1,982.1,704.9z"/>
	<path fill="#FFFFFF" d="M955,715.3c-0.3,0.1-0.5,0.2-0.7,0.3c-1.9,1.7-3.8,3.4-5.7,5.1c-0.5,0.4-0.4,0.8,0,1.2
		c2.2,2,4.4,3.9,6.6,5.9c0.6,0.6,1.1,0.4,1.6-0.1c1.7-1.6,3.4-3.1,5.2-4.6c0.7-0.6,0.7-1.1,0-1.7c-2.1-1.8-4.2-3.7-6.3-5.6
		C955.5,715.6,955.2,715.5,955,715.3z"/>
	<path fill="#FFFFFF" d="M1012.1,766.4c-0.1-0.1-0.2-0.4-0.4-0.5c-2.2-2-4.5-4-6.8-6.1c-0.5-0.4-0.8-0.3-1.3,0.1
		c-1.8,1.6-3.7,3.3-5.5,4.9c-0.6,0.5-0.5,0.9,0,1.4c2.2,2,4.4,3.9,6.6,5.9c0.5,0.5,1,0.4,1.5,0c1.8-1.6,3.6-3.2,5.4-4.8
		C1011.8,767.1,1012,766.9,1012.1,766.4z"/>
	<path fill="#FFFFFF" d="M886.1,772.4c0.2-0.1,0.5-0.3,0.8-0.6c2-1.8,4-3.6,6.1-5.4c0.7-0.6,0.8-1.1,0-1.7c-1.8-1.5-3.5-3-5.2-4.6
		c-0.6-0.5-1-0.6-1.6-0.1c-2.1,1.9-4.3,3.8-6.4,5.7c-0.6,0.5-0.8,0.9-0.1,1.5c1.8,1.6,3.6,3.2,5.4,4.7
		C885.3,772.2,885.5,772.5,886.1,772.4z"/>
	<path fill="#FFFFFF" d="M923.6,703.8c-0.1-0.2-0.2-0.4-0.4-0.5c-1.8-1.7-3.7-3.3-5.5-4.9c-0.7-0.6-1.1-0.3-1.6,0.2
		c-2.1,1.9-4.1,3.7-6.2,5.6c-0.6,0.5-0.7,0.9-0.1,1.5c1.8,1.6,3.6,3.2,5.3,4.8c0.6,0.6,1.1,0.5,1.6,0c2.1-1.9,4.3-3.8,6.4-5.7
		C923.3,704.4,923.6,704.2,923.6,703.8z"/>
	<path fill="#FFFFFF" d="M943,739.8c0-0.4-0.3-0.6-0.5-0.8c-2.1-1.9-4.3-3.8-6.4-5.8c-0.6-0.5-1.1-0.5-1.7,0
		c-1.7,1.5-3.4,3.1-5.2,4.6c-0.8,0.7-0.6,1.1,0.1,1.7c2.1,1.8,4.2,3.7,6.2,5.6c0.6,0.6,1.1,0.6,1.8,0c1.7-1.6,3.4-3.1,5.1-4.6
		C942.7,740.4,943,740.2,943,739.8z"/>
	<path fill="#FFFFFF" d="M982,721.5c0.1-0.4-0.1-0.5-0.2-0.7c-1.9-1.7-3.8-3.4-5.7-5.1c-0.6-0.5-1-0.3-1.4,0.1
		c-2.1,1.9-4.3,3.9-6.4,5.8c-0.6,0.5-0.5,0.9,0,1.3c1.8,1.6,3.6,3.2,5.4,4.8c0.6,0.5,1.1,0.5,1.6,0c2.1-1.9,4.3-3.8,6.4-5.8
		C981.8,721.8,982,721.6,982,721.5z"/>
	<path fill="#FFFFFF" d="M915.9,715.3c-0.2,0.1-0.5,0.2-0.6,0.3c-1.9,1.7-3.8,3.4-5.7,5.1c-0.6,0.6-0.2,1,0.2,1.3
		c2.1,1.9,4.2,3.7,6.3,5.6c0.7,0.6,1.2,0.5,1.8-0.1c1.7-1.6,3.4-3.1,5.2-4.6c0.7-0.6,0.6-1,0-1.5c-2.1-1.8-4.2-3.7-6.3-5.6
		C916.4,715.7,916.2,715.5,915.9,715.3z"/>
	<path fill="#FFFFFF" d="M994,680.5c-0.3,0.1-0.5,0.2-0.7,0.3c-1.9,1.7-3.8,3.4-5.7,5.1c-0.6,0.6-0.3,1,0.2,1.4
		c2.1,1.9,4.2,3.7,6.3,5.6c0.7,0.6,1.2,0.6,1.8,0c1.6-1.5,3.3-3,5-4.5c0.8-0.7,0.8-1.2,0-1.9c-2-1.7-3.9-3.5-5.9-5.2
		C994.6,680.9,994.3,680.7,994,680.5z"/>
	<path fill="#FFFFFF" d="M904,686.7c0.1-0.5-0.2-0.7-0.4-0.9c-1.8-1.6-3.6-3.2-5.3-4.8c-0.7-0.7-1.2-0.4-1.8,0.1
		c-2,1.8-4,3.6-6.1,5.4c-0.7,0.6-0.7,1.1,0,1.7c1.7,1.5,3.4,2.9,5,4.5c0.7,0.7,1.3,0.7,2,0c2-1.8,4-3.6,6.1-5.4
		C903.6,687.1,903.8,686.9,904,686.7z"/>
	<path fill="#FFFFFF" d="M935.2,698c-0.2,0.1-0.4,0.3-0.7,0.5c-1.8,1.6-3.6,3.2-5.4,4.8c-0.5,0.5-0.6,0.8,0,1.3
		c2.2,1.9,4.3,3.8,6.4,5.7c0.6,0.6,1,0.5,1.6,0c1.7-1.6,3.4-3.1,5.2-4.6c0.7-0.6,0.8-1.1,0.1-1.7c-2-1.8-4-3.6-6.1-5.4
		C936.1,698.3,935.8,697.9,935.2,698z"/>
	<path fill="#FFFFFF" d="M962.6,704c-0.1-0.2-0.2-0.4-0.4-0.6c-1.9-1.7-3.8-3.4-5.7-5.1c-0.5-0.5-1-0.3-1.5,0.1
		c-2.1,1.9-4.2,3.7-6.2,5.6c-0.6,0.5-0.7,1,0,1.5c1.8,1.6,3.6,3.2,5.3,4.8c0.6,0.5,1.1,0.5,1.6,0c2.1-1.9,4.3-3.8,6.4-5.8
		C962.3,704.4,962.4,704.2,962.6,704z"/>
	<path fill="#FFFFFF" d="M943.1,775.1c-0.1-0.2-0.2-0.5-0.3-0.6c-2.4-2.1-4.8-4.2-7.2-6.3c-0.5-0.4-0.9-0.1-1.2,0.2
		c-1.7,1.5-3.4,3.1-5.2,4.6c-0.6,0.6-0.6,1,0,1.5c2.2,1.9,4.3,3.8,6.4,5.7c0.6,0.6,1.1,0.7,1.8,0.1c1.7-1.6,3.5-3.1,5.2-4.6
		C942.8,775.5,942.9,775.3,943.1,775.1z"/>
	<path fill="#FFFFFF" d="M982.1,774.8c-0.1-0.2-0.2-0.4-0.4-0.6c-2.2-2-4.5-4-6.7-6.1c-0.6-0.5-1-0.3-1.4,0.1
		c-1.7,1.5-3.4,3.1-5.2,4.6c-0.6,0.5-0.7,0.9-0.1,1.5c2.2,1.9,4.3,3.8,6.4,5.7c0.6,0.5,1,0.6,1.7,0.1c1.8-1.6,3.6-3.2,5.3-4.8
		C981.8,775.3,981.9,775.1,982.1,774.8z"/>
	<path fill="#FFFFFF" d="M956.1,767.8c-0.2,0.1-0.4,0.2-0.5,0.3c-2.4,2.1-4.8,4.2-7.1,6.4c-0.5,0.4-0.2,0.8,0.2,1.2
		c1.8,1.6,3.6,3.2,5.3,4.8c0.6,0.5,1,0.3,1.4-0.1c2.2-2,4.4-3.9,6.6-5.9c0.6-0.6,0.6-1,0-1.5c-1.7-1.5-3.4-3.1-5.2-4.6
		C956.6,768.1,956.4,768,956.1,767.8z"/>
	<path fill="#FFFFFF" d="M915.6,780.7c0.2-0.1,0.5-0.1,0.7-0.3c2.3-2.1,4.6-4.1,7-6.2c0.5-0.4,0.3-0.8-0.1-1.2
		c-1.8-1.6-3.6-3.2-5.4-4.8c-0.6-0.6-1.1-0.4-1.6,0.1c-2.1,1.9-4.1,3.7-6.2,5.6c-0.7,0.6-0.8,1.1,0,1.7c1.7,1.5,3.3,3,5,4.4
		C915.1,780.3,915.3,780.5,915.6,780.7z"/>
	<path fill="#FFFFFF" d="M982.2,756.4c-0.1-0.5-0.4-0.7-0.7-1c-1.6-1.4-3.2-2.8-4.8-4.3c-0.7-0.7-1.3-0.6-2,0c-2,1.8-4,3.6-6.1,5.4
		c-0.7,0.6-1,1.1-0.1,1.9c1.6,1.4,3.2,2.8,4.8,4.3c0.6,0.6,1.1,0.7,1.8,0.1c2.1-1.9,4.3-3.8,6.4-5.7
		C981.8,756.8,982,756.6,982.2,756.4z"/>
	<path fill="#FFFFFF" d="M955.9,693.3c0.1-0.1,0.3-0.1,0.4-0.2c2-1.7,3.9-3.5,5.9-5.3c0.5-0.5,0.2-0.8-0.2-1.2
		c-2.1-1.9-4.2-3.7-6.2-5.6c-0.7-0.6-1.2-0.5-1.8,0c-1.7,1.6-3.4,3.1-5.2,4.6c-0.7,0.6-0.5,1,0.1,1.5c2.1,1.8,4.2,3.7,6.2,5.6
		C955.3,693.1,955.5,693.3,955.9,693.3z"/>
	<path fill="#FFFFFF" d="M923.2,757.8c0.2-0.6,0-0.7-0.2-0.9c-2.3-2.1-4.6-4.1-6.9-6.2c-0.5-0.4-0.9-0.2-1.2,0.1
		c-1.8,1.6-3.5,3.2-5.3,4.8c-0.6,0.5-0.4,0.9,0.1,1.3c2.2,1.9,4.4,3.9,6.6,5.9c0.6,0.6,1.1,0.4,1.6-0.1c1.6-1.5,3.3-3,5-4.5
		C923,758.1,923.2,757.8,923.2,757.8z"/>
	<path fill="#FFFFFF" d="M913,817.7c-0.1-0.2-0.3-0.4-0.5-0.5c-1.8-1.6-3.6-3.2-5.3-4.8c-0.5-0.5-1-0.4-1.5,0.1
		c-2.1,1.9-4.3,3.8-6.5,5.7c-0.6,0.5-0.7,1,0,1.5c1.7,1.5,3.5,3.1,5.2,4.6c0.6,0.6,1.1,0.4,1.6-0.1c2.1-1.9,4.3-3.8,6.4-5.7
		C912.8,818.2,913,818,913,817.7z"/>
	<path fill="#FFFFFF" d="M992.4,818.8c-0.1-0.1-0.2-0.4-0.4-0.5c-2.2-2-4.4-3.9-6.6-5.9c-0.7-0.6-1.1-0.3-1.6,0.2
		c-1.7,1.5-3.3,3-5,4.5c-0.6,0.5-0.8,0.9-0.1,1.5c2.2,1.9,4.3,3.8,6.4,5.7c0.6,0.5,1,0.6,1.6,0c1.7-1.6,3.4-3.1,5.2-4.6
		C992.2,819.4,992.5,819.2,992.4,818.8z"/>
	<path fill="#FFFFFF" d="M913.1,783.2c0.1-0.5-0.2-0.7-0.4-0.9c-1.7-1.5-3.5-3.1-5.2-4.6c-0.7-0.6-1.2-0.5-1.8,0.1
		c-2.1,1.9-4.1,3.7-6.2,5.6c-0.6,0.6-0.6,1,0,1.5c1.7,1.5,3.4,2.9,5,4.4c0.6,0.6,1.1,0.7,1.8,0.1c2.1-1.9,4.2-3.7,6.2-5.6
		C912.8,783.6,912.9,783.3,913.1,783.2z"/>
	<path fill="#FFFFFF" d="M942.9,791.3c0.1-0.5,0-0.7-0.2-0.8c-1.8-1.7-3.7-3.3-5.5-4.9c-0.4-0.4-0.9-0.3-1.3,0.1c-2.3,2-4.5,4-6.8,6
		c-0.5,0.4-0.4,0.8,0,1.2c1.7,1.5,3.5,3.1,5.2,4.6c0.7,0.6,1.2,0.6,1.9,0c2.1-1.9,4.2-3.7,6.2-5.6
		C942.6,791.7,942.8,791.4,942.9,791.3z"/>
	<path fill="#FFFFFF" d="M1002.8,828.4c0.1-0.5-0.1-0.6-0.3-0.8c-2.3-2-4.5-4-6.8-6.1c-0.5-0.5-1-0.3-1.4,0.1
		c-1.7,1.6-3.4,3.1-5.2,4.6c-0.7,0.6-0.5,1,0.1,1.5c2.1,1.8,4.2,3.7,6.3,5.6c0.7,0.6,1.2,0.6,1.8,0c1.6-1.5,3.3-3,5-4.5
		C1002.5,828.7,1002.7,828.5,1002.8,828.4z"/>
	<path fill="#FFFFFF" d="M992.3,783.9c-0.1-0.1-0.2-0.3-0.4-0.5c-2.2-2-4.4-3.9-6.6-5.9c-0.5-0.5-1-0.3-1.5,0.1
		c-1.7,1.5-3.4,3.1-5.2,4.6c-0.6,0.5-0.7,1,0,1.5c2.2,1.9,4.3,3.8,6.4,5.7c0.5,0.4,0.9,0.6,1.4,0.1c1.8-1.6,3.6-3.2,5.4-4.8
		C992.1,784.5,992.4,784.3,992.3,783.9z"/>
	<path fill="#FFFFFF" d="M956.1,798c0.2-0.1,0.4-0.2,0.6-0.4c1.8-1.6,3.6-3.2,5.4-4.8c0.6-0.5,0.4-0.9-0.1-1.3
		c-2.2-1.9-4.3-3.8-6.4-5.7c-0.7-0.7-1.2-0.5-1.8,0.1c-1.6,1.5-3.2,2.9-4.8,4.3c-0.7,0.6-0.8,1-0.1,1.7c2.1,1.8,4.2,3.7,6.3,5.6
		C955.4,797.7,955.7,798,956.1,798z"/>
	<path fill="#FFFFFF" d="M902.6,827.2c0.1-0.5-0.2-0.7-0.4-0.9c-1.7-1.5-3.5-3.1-5.2-4.6c-0.6-0.5-1-0.6-1.6-0.1
		c-2.1,1.9-4.3,3.8-6.4,5.7c-0.6,0.5-0.7,1,0,1.5c1.7,1.5,3.4,2.9,5,4.5c0.6,0.6,1.2,0.7,1.8,0.1c2.1-1.9,4.2-3.7,6.3-5.6
		C902.3,827.6,902.4,827.4,902.6,827.2z"/>
	<path fill="#FFFFFF" d="M1005.4,807.4c0.2-0.1,0.5-0.2,0.7-0.3c1.9-1.6,3.7-3.3,5.6-4.9c0.6-0.6,0.3-0.9-0.2-1.4
		c-2.1-1.9-4.3-3.8-6.4-5.8c-0.6-0.6-1-0.5-1.6,0c-1.6,1.5-3.3,3-5,4.5c-0.7,0.6-0.8,1,0,1.7c2.1,1.8,4.2,3.7,6.3,5.6
		C1004.8,807.1,1005.1,807.2,1005.4,807.4z"/>
	<path fill="#FFFFFF" d="M943,686.4c-0.1-0.1-0.2-0.3-0.4-0.5c-1.8-1.7-3.7-3.3-5.5-4.9c-0.5-0.5-1-0.3-1.5,0.1
		c-2.1,1.9-4.1,3.7-6.2,5.6c-0.6,0.5-0.7,1,0,1.5c1.8,1.6,3.6,3.2,5.3,4.8c0.5,0.4,0.9,0.5,1.4,0c2.1-1.9,4.3-3.8,6.4-5.7
		C942.8,687.1,943.1,686.9,943,686.4z"/>
	<path fill="#FFFFFF" d="M887.1,794.6c-0.2,0.1-0.5,0.2-0.6,0.4c-2.3,2-4.5,4-6.8,6.1c-0.6,0.5-0.3,0.9,0.1,1.4
		c1.7,1.5,3.5,3.1,5.2,4.6c0.6,0.6,1.1,0.4,1.6-0.1c2.1-1.9,4.1-3.7,6.3-5.6c0.7-0.6,0.8-1.1,0-1.7c-1.7-1.5-3.3-3-5-4.5
		C887.7,794.9,887.4,794.8,887.1,794.6z"/>
	<path fill="#FFFFFF" d="M972.9,801.4c-0.2-0.3-0.4-0.5-0.6-0.7c-2.1-1.9-4.3-3.8-6.4-5.7c-0.6-0.6-1.1-0.4-1.6,0.1
		c-1.7,1.5-3.3,3-5,4.5c-0.8,0.7-0.6,1.1,0.1,1.7c2.1,1.8,4.1,3.6,6.1,5.4c0.7,0.6,1.2,0.6,1.8,0c1.7-1.5,3.3-3,5-4.5
		C972.4,802,972.6,801.7,972.9,801.4z"/>
	<path fill="#FFFFFF" d="M903.8,740.1c-0.1-0.2-0.2-0.4-0.3-0.6c-2.3-2-4.5-4-6.8-6c-0.6-0.5-1-0.2-1.4,0.2c-1.7,1.5-3.3,3-5,4.5
		c-0.8,0.6-0.6,1.1,0.1,1.7c2.1,1.8,4.1,3.6,6.1,5.4c0.6,0.6,1.1,0.8,1.8,0.1c1.7-1.6,3.4-3.1,5.2-4.7
		C903.5,740.5,903.6,740.3,903.8,740.1z"/>
	<path fill="#FFFFFF" d="M994,745.9c0.3-0.2,0.5-0.3,0.8-0.5c2.2-1.9,4.3-3.8,6.5-5.7c0.7-0.6,0.5-1-0.1-1.5c-1.7-1.5-3.4-2.9-5-4.5
		c-0.7-0.7-1.2-0.5-1.8,0.1c-2,1.8-4,3.6-6.1,5.4c-0.7,0.6-0.9,1-0.1,1.7c1.7,1.5,3.3,3,5,4.5C993.4,745.5,993.7,745.6,994,745.9z"
		/>
	<path fill="#FFFFFF" d="M926.2,794.5c-0.3,0.2-0.5,0.3-0.8,0.5c-2.2,1.9-4.3,3.8-6.5,5.7c-0.5,0.5-0.6,0.9,0,1.4
		c1.8,1.6,3.6,3.2,5.4,4.8c0.6,0.5,1,0.3,1.4-0.1c2.2-1.9,4.3-3.8,6.5-5.7c0.6-0.5,0.5-0.9,0-1.4c-1.8-1.6-3.6-3.2-5.4-4.8
		C926.7,794.7,926.4,794.6,926.2,794.5z"/>
	<path fill="#FFFFFF" d="M871.9,720.9c0.2,1.1-0.2,2.4,0.9,3.3c1.4,1.2,2.7,2.4,4.1,3.7c0.6,0.5,1.1,0.6,1.7,0
		c1.7-1.5,3.4-3.1,5.2-4.6c0.5-0.5,0.6-0.8,0-1.3c-1.3-1.1-2.6-2.4-3.9-3.5c-1.2-0.9-2-2.7-3.5-2.6c-1.4,0.1-2.3,1.8-3.5,2.7
		C872,719.2,871.7,719.9,871.9,720.9z"/>
	<path fill="#FFFFFF" d="M1019.2,721.4c0.5-1.5-0.2-2.4-1.3-3.3c-0.8-0.6-1.5-1.2-2.2-1.9c-0.5-0.5-1-0.7-1.6-0.1
		c-2.2,2-4.4,3.9-6.6,5.9c-0.6,0.5-0.5,0.9,0,1.3c1.7,1.5,3.5,3,5.2,4.6c0.6,0.5,1.1,0.5,1.7,0c1-0.9,2-1.9,3-2.7
		C1018.7,724.2,1019.6,723.1,1019.2,721.4z"/>
	<path fill="#FFFFFF" d="M945.6,830c-0.2,0.1-0.4,0.2-0.5,0.3c-2,1.8-4.1,3.6-6.1,5.4c-0.6,0.5-0.2,0.9,0.2,1.2
		c1.9,1.7,3.8,3.4,5.7,5.1c0.5,0.5,1,0.4,1.4-0.1c1.8-1.7,3.7-3.3,5.6-4.9c0.6-0.5,0.7-1,0-1.5c-1.9-1.6-3.7-3.3-5.6-4.9
		C946.2,830.2,945.9,830.1,945.6,830z"/>
	<path fill="#FFFFFF" d="M952.5,713.3c-0.2-0.4-0.3-0.6-0.4-0.8c-1.9-1.8-3.9-3.5-5.9-5.3c-0.4-0.4-0.9-0.2-1.3,0.1
		c-1.8,1.6-3.7,3.3-5.5,4.9c-0.5,0.5-0.5,0.9,0,1.4c1.8,1.6,3.6,3.2,5.3,4.8c0.7,0.6,1.2,0.6,1.8,0c1.7-1.6,3.4-3.1,5.2-4.6
		C951.9,713.7,952.2,713.5,952.5,713.3z"/>
	<path fill="#FFFFFF" d="M926.2,701.6c0.2-0.1,0.4-0.2,0.6-0.3c1.9-1.7,3.8-3.4,5.7-5.1c0.6-0.6,0.3-1-0.2-1.4
		c-1.7-1.5-3.5-3.1-5.2-4.6c-0.7-0.6-1.2-0.6-1.8,0c-1.7,1.6-3.4,3.1-5.2,4.6c-0.8,0.7-0.6,1.1,0,1.7c1.7,1.5,3.3,3,5,4.4
		C925.5,701.3,925.7,701.6,926.2,701.6z"/>
	<path fill="#FFFFFF" d="M913.3,713.1c-0.2-0.3-0.3-0.5-0.5-0.6c-1.8-1.7-3.7-3.3-5.5-5c-0.7-0.6-1.1-0.3-1.6,0.2
		c-1.7,1.5-3.4,3.1-5.2,4.6c-0.6,0.5-0.8,0.9-0.1,1.5c1.8,1.6,3.6,3.2,5.3,4.8c0.6,0.5,1.1,0.5,1.6,0c1.8-1.6,3.6-3.2,5.3-4.8
		C913,713.6,913.2,713.4,913.3,713.1z"/>
	<path fill="#FFFFFF" d="M887.2,701.6c0.2-0.1,0.4-0.2,0.6-0.4c1.9-1.6,3.7-3.3,5.6-4.9c0.5-0.5,0.6-0.9,0-1.4
		c-1.8-1.6-3.6-3.2-5.3-4.8c-0.7-0.6-1.2-0.5-1.8,0.1c-1.6,1.5-3.3,3-5,4.5c-0.8,0.7-0.9,1.2,0,1.9c1.7,1.4,3.3,3,5,4.4
		C886.4,701.3,886.7,701.6,887.2,701.6z"/>
	<path fill="#FFFFFF" d="M1010.9,695.7c-0.1-0.2-0.2-0.5-0.4-0.6c-1.9-1.7-3.8-3.4-5.7-5.1c-0.6-0.5-1-0.3-1.4,0.2
		c-1.7,1.6-3.4,3.1-5.2,4.6c-0.7,0.6-0.7,1.1,0,1.7c1.8,1.5,3.5,3.1,5.2,4.6c0.5,0.5,1,0.7,1.6,0.1c1.8-1.7,3.7-3.3,5.5-5
		C1010.6,696.1,1010.7,695.9,1010.9,695.7z"/>
	<path fill="#FFFFFF" d="M965.1,689.7c-0.3,0.1-0.5,0.2-0.7,0.3c-1.9,1.7-3.8,3.4-5.7,5.1c-0.5,0.4-0.4,0.8,0.1,1.2
		c1.8,1.6,3.7,3.3,5.5,4.9c0.6,0.5,1.1,0.5,1.6-0.1c1.7-1.6,3.4-3.1,5.2-4.6c0.7-0.6,0.7-1.1,0-1.7c-1.7-1.5-3.3-3-5-4.4
		C965.8,690.1,965.5,689.9,965.1,689.7z"/>
	<path fill="#FFFFFF" d="M1017.9,738.7c0.6-1.5-0.4-2.8-2-3.9c-0.5-0.3-0.9-0.7-1.3-1.1c-0.8-1-1.5-0.7-2.4,0.1
		c-1.5,1.4-3,2.8-4.7,4.1c-1,0.8-0.8,1.3,0.1,2c1.7,1.4,3.4,3,5,4.4c2,1.8,2.3,1.8,4.1-0.2c0.4-0.5,0.5-1,0.6-1.5
		C1017.6,741.5,1017.7,740.4,1017.9,738.7z"/>
	<path fill="#FFFFFF" d="M873.3,738.1c0.2,1.7,0.3,3.2,0.4,4.6c0.1,1.6,1.4,2.3,2.5,3c0.9,0.6,1.4-0.7,2.1-1.2
		c0.8-0.6,1.6-1.3,2.3-2.1c1.2-1.2,2.6-2.1,3.6-3.4c-0.9-1.6-2.4-2.5-3.7-3.7c-2.9-2.7-2.9-2.6-6,0C873.7,736.2,873,737,873.3,738.1
		z"/>
	<path fill="#FFFFFF" d="M926,724.5c-0.2,0.1-0.4,0.2-0.5,0.3c-1.9,1.7-3.8,3.4-5.7,5.1c-0.6,0.5-0.3,1,0.2,1.4
		c1.7,1.5,3.5,3.1,5.2,4.6c0.7,0.6,1.2,0.6,1.8,0c1.7-1.6,3.4-3.1,5.2-4.6c0.7-0.6,0.6-1,0-1.5c-1.8-1.6-3.6-3.2-5.4-4.8
		C926.6,724.8,926.3,724.6,926,724.5z"/>
	<path fill="#FFFFFF" d="M971.7,730.7c0.1-0.5-0.2-0.7-0.4-0.9c-1.8-1.6-3.6-3.2-5.3-4.8c-0.6-0.5-1-0.5-1.6,0
		c-1.8,1.6-3.5,3.2-5.3,4.8c-0.7,0.6-0.6,1,0,1.5c1.7,1.5,3.5,3,5.2,4.6c0.6,0.6,1.2,0.7,1.8,0c1.7-1.6,3.4-3.1,5.1-4.6
		C971.4,731.1,971.6,730.9,971.7,730.7z"/>
	<path fill="#FFFFFF" d="M982.2,809.7c-0.1-0.2-0.2-0.4-0.4-0.6c-1.9-1.7-3.8-3.4-5.7-5.1c-0.5-0.5-0.9-0.4-1.4,0
		c-1.7,1.5-3.5,3.1-5.2,4.6c-0.6,0.5-0.7,1,0,1.5c1.9,1.6,3.7,3.3,5.6,4.9c0.5,0.5,0.9,0.4,1.4,0c1.8-1.6,3.6-3.2,5.3-4.8
		C981.9,810.2,982,809.9,982.2,809.7z"/>
	<path fill="#FFFFFF" d="M984.9,707.2c-0.5-0.1-0.7,0.1-1,0.3c-1.8,1.6-3.7,3.3-5.5,4.9c-0.6,0.5-0.4,0.9,0.1,1.3
		c1.8,1.6,3.6,3.2,5.3,4.8c0.6,0.5,1.1,0.5,1.6,0c1.7-1.6,3.4-3.1,5.2-4.6c0.7-0.6,0.8-1,0-1.7c-1.8-1.5-3.5-3.1-5.2-4.6
		C985.3,707.5,985,707.3,984.9,707.2z"/>
	<path fill="#FFFFFF" d="M915.7,815.5c0.1-0.1,0.3-0.1,0.4-0.2c2-1.7,3.9-3.5,5.9-5.2c0.6-0.6,0.3-1-0.2-1.4c-1.7-1.5-3.4-2.9-5-4.5
		c-0.6-0.6-1.1-0.6-1.8,0c-1.8,1.6-3.5,3.2-5.4,4.8c-0.7,0.6-0.5,1,0,1.5c1.7,1.5,3.5,3.1,5.2,4.6
		C915.1,815.3,915.3,815.5,915.7,815.5z"/>
	<path fill="#FFFFFF" d="M995.1,798.2c0.3-0.2,0.5-0.3,0.7-0.4c1.8-1.6,3.7-3.3,5.5-4.9c0.5-0.4,0.3-0.8-0.1-1.2
		c-1.8-1.6-3.7-3.3-5.5-4.9c-0.6-0.5-1.1-0.5-1.6,0c-1.6,1.5-3.3,3-5,4.4c-0.7,0.6-0.8,1.1-0.1,1.7c1.8,1.6,3.6,3.2,5.3,4.8
		C994.6,797.9,994.9,798.1,995.1,798.2z"/>
	<path fill="#FFFFFF" d="M952.2,748c-0.2-0.2-0.3-0.4-0.4-0.6c-1.8-1.7-3.7-3.3-5.5-5c-0.4-0.4-0.8-0.4-1.3,0
		c-1.8,1.7-3.7,3.3-5.5,4.9c-0.6,0.5-0.5,0.9,0.1,1.4c1.8,1.6,3.6,3.2,5.4,4.8c0.5,0.5,0.9,0.5,1.4,0c1.8-1.7,3.7-3.3,5.5-4.9
		C952,748.5,952.1,748.2,952.2,748z"/>
	<path fill="#FFFFFF" d="M896.6,786.4c-0.5-0.1-0.8,0.2-1,0.4c-1.8,1.6-3.7,3.3-5.5,4.9c-0.6,0.5-0.4,0.9,0.1,1.4
		c1.7,1.5,3.5,3,5.2,4.6c0.7,0.7,1.2,0.4,1.8-0.1c1.7-1.6,3.4-3.1,5.2-4.6c0.8-0.7,0.6-1.1,0-1.7c-1.7-1.5-3.3-2.9-5-4.4
		C897,786.7,896.7,786.5,896.6,786.4z"/>
	<path fill="#FFFFFF" d="M985,742.2c-0.2,0.1-0.4,0.2-0.5,0.3c-2,1.7-3.9,3.5-5.9,5.2c-0.5,0.5-0.2,0.8,0.2,1.2
		c1.8,1.6,3.6,3.2,5.3,4.8c0.5,0.5,1,0.4,1.4-0.1c1.8-1.6,3.5-3.2,5.3-4.8c0.6-0.5,0.6-1,0-1.5c-1.7-1.5-3.4-3.1-5.2-4.6
		C985.5,742.5,985.2,742.3,985,742.2z"/>
	<path fill="#FFFFFF" d="M906.5,742.3c-0.5-0.1-0.7,0.2-0.9,0.4c-1.7,1.5-3.4,3.1-5.2,4.6c-0.6,0.5-0.7,0.9,0,1.5
		c1.8,1.6,3.6,3.2,5.4,4.8c0.6,0.5,1.1,0.5,1.6,0c1.6-1.5,3.3-3,5-4.5c0.7-0.6,0.8-1,0-1.7c-1.8-1.5-3.5-3.1-5.2-4.6
		C906.9,742.6,906.7,742.4,906.5,742.3z"/>
	<path fill="#FFFFFF" d="M1004.1,736.6c0.5,0,0.8-0.3,1.1-0.5c1.7-1.5,3.5-3.1,5.2-4.6c0.7-0.6,0.6-1,0-1.5c-1.7-1.5-3.4-2.9-5-4.5
		c-0.7-0.6-1.2-0.5-1.8,0.1c-1.7,1.6-3.4,3.1-5.2,4.6c-0.6,0.6-0.6,0.9,0,1.5c1.7,1.5,3.3,3,5,4.5
		C1003.7,736.3,1003.9,736.4,1004.1,736.6z"/>
	<path fill="#FFFFFF" d="M881.5,835.4c0.2,1.6,0.4,2.8,0.4,4.1c0,1.4,0.7,2.2,1.6,3c0.7,0.6,1.2,0.8,2,0.1c2-1.9,4-3.6,6.1-5.4
		c0.8-0.7,0.9-1.2,0-1.9c-1-0.8-1.9-1.7-2.9-2.5c-3-2.7-3-2.6-6,0.1C881.9,833.6,881.2,834.4,881.5,835.4z"/>
	<path fill="#FFFFFF" d="M1009.8,835.6c0.3-0.9-0.2-2.1-1.5-2.9c-0.7-0.4-1.2-1-1.8-1.6c-0.7-0.7-1.3-0.7-2,0
		c-1.5,1.4-3.1,2.7-4.6,4.1c-1.1,1-1.1,1.1,0.1,2.2c1.7,1.6,3.4,3.1,5.2,4.6c1.7,1.5,1.9,1.5,3.4-0.1c0.5-0.5,0.7-1,0.8-1.7
		C1009.4,838.8,1009.6,837.5,1009.8,835.6z"/>
	<path fill="#FFFFFF" d="M893.5,730.9c-0.2-0.3-0.4-0.5-0.6-0.7c-1.8-1.6-3.6-3.2-5.4-4.8c-0.6-0.6-1.1-0.4-1.6,0.1
		c-1.7,1.5-3.3,3-5,4.5c-0.6,0.5-0.7,1,0,1.5c1.8,1.6,3.6,3.2,5.4,4.8c0.6,0.6,1.1,0.4,1.6-0.1c1.7-1.5,3.3-3,5-4.5
		C893.1,731.4,893.2,731.1,893.5,730.9z"/>
	<path fill="#FFFFFF" d="M887,676.5c-1.6,0-3.2,0-4.8,0c-0.8,0-1.5,0.2-2.2,0.8c-0.7,0.6-0.8,1,0,1.7c2.1,1.8,4.2,3.7,6.2,5.6
		c0.8,0.7,1.3,0.5,2-0.1c1.8-1.7,3.7-3.3,5.5-4.9c1.3-1.2,1.1-2.2-0.6-2.8c-0.4-0.2-0.9-0.1-1.4-0.1
		C890.2,676.5,888.6,676.5,887,676.5z"/>
	<path fill="#FFFFFF" d="M933.8,678.2c-0.1-0.7-1.8-1.7-2.9-1.7c-3.2,0-6.4,0-9.5,0c-1,0-1.7,0.4-2.3,1c-0.5,0.5-0.7,0.8-0.1,1.4
		c2.2,2,4.4,3.9,6.6,5.9c0.5,0.4,0.9,0.5,1.5,0c2.1-1.9,4.3-3.8,6.4-5.7C933.6,678.8,933.9,678.6,933.8,678.2z"/>
	<path fill="#FFFFFF" d="M971.8,765.6c-0.2-0.3-0.4-0.6-0.6-0.8c-1.7-1.6-3.5-3.1-5.2-4.6c-0.5-0.5-0.9-0.5-1.4,0
		c-1.8,1.6-3.6,3.2-5.4,4.8c-0.5,0.5-0.6,0.9,0,1.4c1.7,1.5,3.5,3.1,5.2,4.6c0.6,0.5,1.1,0.5,1.6,0c1.7-1.6,3.5-3.1,5.2-4.6
		C971.4,766.1,971.6,765.8,971.8,765.6z"/>
	<path fill="#FFFFFF" d="M965.3,676.5c-1.6,0-3.2,0.1-4.8,0c-1.1-0.1-1.8,0.5-2.5,1.1c-0.6,0.6-0.6,1,0,1.5c2,1.8,4.1,3.6,6.1,5.4
		c0.7,0.7,1.3,0.6,2,0c1.9-1.8,3.9-3.5,5.9-5.3c1.1-1,1-1.2-0.1-2.2c-0.6-0.5-1.3-0.6-2-0.6C968.3,676.5,966.8,676.5,965.3,676.5z"
		/>
	<path fill="#FFFFFF" d="M1011.9,678.1c-0.2-0.2-0.3-0.4-0.4-0.6c-0.6-0.6-1.3-1.1-2.3-1.1c-3.3,0-6.7,0-10,0c-1,0-1.6,0.5-2.3,1.1
		c-0.6,0.5-0.5,0.9,0,1.4c2.1,1.9,4.3,3.8,6.4,5.7c0.6,0.5,1.1,0.5,1.6,0c2.1-1.9,4.3-3.8,6.4-5.8
		C1011.6,678.7,1011.7,678.4,1011.9,678.1z"/>
	<path fill="#FFFFFF" d="M925.8,759.8c-0.2,0.2-0.5,0.3-0.7,0.5c-1.7,1.5-3.3,3-5,4.5c-0.6,0.5-0.7,1,0,1.5c1.7,1.5,3.5,3.1,5.2,4.6
		c0.6,0.5,1,0.6,1.6,0c1.6-1.5,3.3-3,5-4.5c0.7-0.6,0.8-1.1,0-1.7c-1.7-1.5-3.3-3-5-4.4C926.6,760.1,926.3,759.8,925.8,759.8z"/>
	<path fill="#FFFFFF" d="M945.7,777.2c-0.3,0.2-0.6,0.3-0.8,0.5c-1.7,1.5-3.5,3.1-5.2,4.6c-0.7,0.6-0.5,1,0.1,1.5
		c1.7,1.5,3.4,2.9,5,4.5c0.7,0.6,1.2,0.5,1.8-0.1c1.6-1.5,3.2-2.9,4.8-4.3c0.7-0.6,0.9-1,0.1-1.7c-1.7-1.5-3.3-3-5-4.4
		C946.3,777.5,946,777.4,945.7,777.2z"/>
	<path fill="#FFFFFF" d="M1016.6,753.1c0.1-1.1-0.4-1.9-1.4-2.5c-1.1-0.6-1.4,0.4-2,0.8c-1.9,1.6-3.7,3.3-5.6,4.9
		c-0.8,0.7-0.9,1.1-0.1,1.8c2,1.7,3.9,3.5,5.9,5.3c0.4,0.4,0.8,0.9,1.4,0.7c0.8-0.3,0.9-1,1-1.8
		C1016.1,759.3,1016.4,756.2,1016.6,753.1z"/>
	<path fill="#FFFFFF" d="M876.5,750.4c-0.7,0.1-1.8,1.6-1.8,2.5c0,1,0.1,1.9,0.2,2.9c0.2,2.3,0.3,4.6,0.6,6.9c0.2,1.6,1,1.9,2.2,0.9
		c2-1.8,4-3.6,6.1-5.4c0.6-0.6,0.9-1,0.1-1.7c-2.1-1.8-4.2-3.7-6.3-5.6C877.2,750.7,876.9,750.4,876.5,750.4z"/>
	<path fill="#FFFFFF" d="M984.6,676.5c-1.3,0-2.6,0-3.8,0c-0.9,0-1.5,0.3-2.2,0.8c-0.7,0.6-0.7,1.1,0,1.7c1.7,1.5,3.4,2.9,5,4.5
		c0.8,0.8,1.4,0.7,2.2-0.1c1.6-1.5,3.2-2.9,4.8-4.3c0.8-0.7,0.8-1.2,0-1.9c-0.7-0.5-1.3-0.8-2.2-0.8
		C987.1,676.5,985.8,676.5,984.6,676.5z"/>
	<path fill="#FFFFFF" d="M906.8,676.5c-1.4,0-2.7,0-4.1,0c-0.9,0-1.5,0.3-2.1,0.9c-0.7,0.6-0.8,1-0.1,1.7c1.7,1.5,3.5,3,5.2,4.6
		c0.8,0.8,1.3,0.5,2-0.1c1.6-1.5,3.2-2.8,4.8-4.3c1.1-1,1.1-1.2-0.1-2.1c-0.5-0.4-1.1-0.6-1.8-0.6
		C909.4,676.5,908.1,676.5,906.8,676.5z"/>
	<path fill="#FFFFFF" d="M945.6,676.5c-1.2,0-2.4,0.1-3.6,0c-1.1-0.1-1.8,0.4-2.5,1.1c-0.6,0.6-0.6,1,0,1.6c1.7,1.5,3.5,3,5.2,4.6
		c0.7,0.6,1.1,0.6,1.8,0c1.5-1.4,3.1-2.7,4.6-4.1c1.4-1.3,1.3-1.6-0.1-2.7c-0.6-0.4-1.2-0.5-1.8-0.5
		C948,676.5,946.8,676.5,945.6,676.5z"/>
	<path fill="#FFFFFF" d="M945.5,853.7C945.5,853.7,945.5,853.7,945.5,853.7c2.1,0,4.3,0,6.4,0c0.3,0,0.7,0.1,0.8-0.3
		c0.1-0.4-0.2-0.6-0.4-0.8c-1.9-1.7-3.8-3.4-5.7-5.1c-0.9-0.8-1.4-0.7-2.2,0.1c-1.7,1.6-3.6,3.2-5.3,4.8c-0.3,0.3-1,0.5-0.7,1.1
		c0.2,0.5,0.9,0.3,1.3,0.3C941.7,853.7,943.6,853.7,945.5,853.7z"/>
	<path fill="#FFFFFF" d="M1015.2,770.1c0.1-0.5,0.2-1-0.4-1.2c-0.4-0.2-0.7,0.2-1,0.5c-1.7,1.5-3.5,3.1-5.2,4.6
		c-0.6,0.5-0.8,0.9-0.1,1.5c1.6,1.4,3.2,2.9,4.8,4.3c0.8,0.7,1,0.2,1.1-0.6C1014.7,776.2,1015,773.2,1015.2,770.1z"/>
	<path fill="#FFFFFF" d="M876.2,771.4c0.2,2.5,0.4,5,0.6,7.5c0,0.4-0.1,0.9,0.3,1.1c0.6,0.3,0.9-0.2,1.2-0.5
		c1.4-1.2,2.7-2.5,4.1-3.6c0.9-0.7,1-1.2,0-2c-1.4-1.1-2.6-2.3-4-3.5c-0.6-0.5-1.2-1.7-2.1-1.3C875.5,769.5,876.4,770.7,876.2,771.4
		z"/>
	<path fill="#FFFFFF" d="M965.4,853.7c1.9,0,3.8,0,5.7,0c0.3,0,0.7,0,0.7-0.4c0-0.2-0.2-0.4-0.3-0.6c-1.7-1.5-3.5-3.1-5.2-4.6
		c-0.6-0.5-1.1-0.6-1.7,0c-1.7,1.6-3.5,3.1-5.2,4.6c-0.2,0.1-0.4,0.4-0.3,0.6c0,0.4,0.4,0.4,0.7,0.4
		C961.7,853.7,963.5,853.7,965.4,853.7z"/>
	<path fill="#FFFFFF" d="M925.6,853.7C925.6,853.7,925.6,853.7,925.6,853.7c1.9,0,3.8,0,5.7,0c0.3,0,0.7,0,0.7-0.4
		c0-0.2-0.2-0.4-0.3-0.6c-1.7-1.6-3.5-3.1-5.2-4.6c-0.6-0.6-1.1-0.5-1.6,0c-1.7,1.6-3.5,3.1-5.2,4.6c-0.2,0.2-0.5,0.5-0.3,0.8
		c0.1,0.1,0.4,0.2,0.6,0.2C922,853.7,923.8,853.7,925.6,853.7z"/>
	<path fill="#FFFFFF" d="M877.6,788.6c0.2,2.6,0.4,5.3,0.6,7.9c0.1,1.2,0.4,1.3,1.3,0.5c1.5-1.3,3-2.7,4.5-4
		c0.5-0.4,0.7-0.8,0.1-1.3c-1.9-1.6-3.7-3.3-5.6-4.9c-0.2-0.2-0.5-0.5-0.8-0.2c-0.1,0.1-0.2,0.4-0.2,0.6
		C877.6,787.7,877.6,788.2,877.6,788.6z"/>
	<path fill="#FFFFFF" d="M1013.8,786.7c0,0.2,0.1-0.2-0.2-0.3c-0.3-0.2-0.6,0.2-0.8,0.4c-1.8,1.6-3.7,3.3-5.5,4.9
		c-0.5,0.5-0.6,0.9,0,1.4c1.5,1.4,3.1,2.8,4.6,4.1c0.7,0.6,1.1,0.6,1.2-0.5C1013.2,793.5,1013.5,790.4,1013.8,786.7z"/>
	<path fill="#FFFFFF" d="M905,853.7C905,853.7,905,853.7,905,853.7c1.8,0,3.7,0,5.5,0c0.3,0,0.7,0,0.9-0.3c0.2-0.4-0.1-0.6-0.3-0.8
		c-1.7-1.5-3.3-3-5-4.5c-0.6-0.5-1.1-0.5-1.6,0c-1.6,1.5-3.3,3-5,4.5c-0.2,0.2-0.6,0.4-0.3,0.8c0.1,0.1,0.4,0.2,0.6,0.2
		C901.5,853.7,903.3,853.7,905,853.7z"/>
	<path fill="#FFFFFF" d="M985.9,853.7C985.9,853.7,985.9,853.7,985.9,853.7c1.8,0,3.7,0,5.5,0c0.3,0,0.7,0.1,0.8-0.4
		c0-0.2-0.1-0.4-0.3-0.6c-1.7-1.5-3.4-3.1-5.1-4.6c-0.7-0.6-1.1-0.3-1.6,0.2c-1.6,1.4-3.2,2.9-4.8,4.3c-0.2,0.2-0.6,0.4-0.4,0.8
		c0.1,0.4,0.5,0.3,0.8,0.3C982.4,853.7,984.2,853.7,985.9,853.7z"/>
	<path fill="#FFFFFF" d="M869.5,692.7c0.2,2.2,0.4,4.3,0.5,6.3c0.1,1,0.5,1.1,1.2,0.5c1.2-1.1,2.4-2.1,3.6-3.2
		c0.6-0.5,0.5-0.9,0-1.4c-1.1-1-2.2-2-3.4-3c-0.5-0.4-1-1.4-1.7-1.1C869.1,691.2,869.6,692.2,869.5,692.7z"/>
	<path fill="#FFFFFF" d="M1021.6,694c0.1-1.1,0.1-1.6,0.1-2.2c0-0.3,0-0.7-0.2-0.9c-0.4-0.3-0.7,0.1-1,0.3c-1.4,1.2-2.7,2.4-4.1,3.6
		c-0.5,0.4-0.7,0.8-0.1,1.4c1.3,1.1,2.5,2.2,3.7,3.3c0.6,0.6,1,0.4,1-0.4C1021.3,697.3,1021.5,695.4,1021.6,694z"/>
	<path fill="#FFFFFF" d="M887.3,853.7C887.3,853.7,887.3,853.7,887.3,853.7c1,0,1.9,0,2.9,0c0.2,0,0.5,0,0.6-0.3
		c0.1-0.3-0.1-0.4-0.3-0.6c-1.6-1.4-3.2-2.9-4.8-4.3c-0.4-0.4-0.8-1-1.4-0.6c-0.7,0.4-1.4,0.9-1.4,1.8c0,1,0.1,1.9,0.2,2.9
		c0,0.8,0.4,1.2,1.2,1.2C885.2,853.7,886.2,853.7,887.3,853.7z"/>
	<path fill="#FFFFFF" d="M1003.9,853.7c5.2-0.1,3.9,0.6,4.6-3.6c0.2-1.1-0.5-1.6-1.2-2.1c-0.8-0.6-1.3,0.2-1.8,0.6
		c-0.9,0.7-1.7,1.4-2.5,2.2c-0.8,0.9-2.1,1.3-2.5,2.7C1001.7,853.9,1002.9,853.6,1003.9,853.7z"/>
	<path fill="#FFFFFF" d="M870.8,676.5c-0.4,0-0.7,0-1,0c-1.5,0.1-1.6,0.1-1.4,1.7c0.1,1.3,0.2,2.5,0.3,3.8c0.1,0.8,0.5,1,1.1,0.5
		c1.2-1,2.4-2.1,3.6-3.2c1.2-1.1,1.1-1.8-0.4-2.6C872.2,676.4,871.4,676.6,870.8,676.5z"/>
	<path fill="#FFFFFF" d="M1020.7,676.5c-1.2-0.1-2.3-0.1-3.2,1c-0.3,0.4-0.6,0.7-0.1,1.2c1.4,1.3,2.8,2.6,4.3,3.8
		c0.4,0.4,0.9,0.5,1-0.3c0.2-1.5,0.3-3,0.4-4.5c0.1-0.8-0.3-1.2-1.1-1.1C1021.5,676.5,1021.1,676.5,1020.7,676.5z"/>
	<path fill="#FFFFFF" d="M729.7,351.8c0-0.6,0-1.3,0-1.9c0.1-1-0.4-1.4-1.4-1.3c-0.9,0-1.3,0.4-1.2,1.3c0,1.2,0,2.4,0,3.5
		c0,0.9,0.2,1.5,1.3,1.5c1.1,0,1.4-0.5,1.3-1.4C729.7,352.9,729.7,352.4,729.7,351.8z"/>
	<path fill="#FFFFFF" d="M732.7,351.7c0,0.6,0,1.1,0,1.7c0,0.9,0.1,1.5,1.2,1.5c1,0,1.4-0.4,1.4-1.4c0-1.2,0-2.4,0-3.6
		c0-1-0.4-1.4-1.4-1.4c-1.2,0-1.3,0.6-1.3,1.5C732.7,350.6,732.7,351.2,732.7,351.7z"/>
	<path fill="#FFFFFF" d="M879.7,806.3c-0.4,0-0.6,0.1-0.6,0.4c0.1,1.8,0.3,3.6,0.5,5.4c0,0.4,0.4,0.4,0.7,0.3
		c0.3-0.2,0.6-0.5,0.9-0.7c2.3-2,2.3-2,0-4C880.7,807.2,880.2,806.7,879.7,806.3z"/>
	<path fill="#FFFFFF" d="M1012.1,808.2c0-0.3,0-0.9,0-1.4c0-0.4-0.3-0.6-0.6-0.3c-1.2,1-2.9,1.8-3.3,3.3c-0.2,0.9,1.5,1.6,2.3,2.5
		c0.1,0.1,0.1,0.1,0.2,0.1c0.5,0.4,0.9,0.4,0.9-0.4C1011.8,810.8,1011.9,809.6,1012.1,808.2z"/>
	<path fill="#FFFFFF" d="M738.4,351.7c0,0.6,0,1.3,0,1.9c0,0.9,0.3,1.3,1.2,1.3c0.8,0,1.3-0.2,1.3-1.2c0-1.3,0-2.5,0-3.8
		c0-0.9-0.3-1.3-1.2-1.3c-0.9,0-1.3,0.3-1.3,1.2C738.4,350.4,738.4,351.1,738.4,351.7z"/>
	<path fill="#FFFFFF" d="M724.1,351.8c0-0.7,0-1.4,0-2.1c0-1-0.6-1.1-1.4-1.1c-0.9,0-1.1,0.4-1.1,1.2c0,1.3,0,2.7,0,4
		c0,0.8,0.4,1.1,1.2,1.1c0.8,0,1.4-0.2,1.4-1.2C724.1,353.1,724.1,352.5,724.1,351.8z"/>
	<path fill="#FFFFFF" d="M1020.1,712.5c-0.2-0.3,0.4-0.9-0.3-1.1c-0.4-0.1-0.7,0.3-1,0.6c-0.4,0.3-0.7,0.6-1.1,1
		c-0.2,0.2-0.5,0.5-0.2,0.8c0.5,0.6,1.1,1.4,1.8,1.4c0.8,0,0.4-1,0.6-1.6C1020.1,713.2,1020,712.9,1020.1,712.5z"/>
	<path fill="#FFFFFF" d="M871.3,712.9C871.3,712.9,871.3,712.9,871.3,712.9c0,0.2,0,0.5,0.1,0.7c0.1,0.5-0.2,1.3,0.4,1.5
		c0.7,0.2,1-0.6,1.5-0.9c0.7-0.5,0.7-1,0-1.5c-0.5-0.4-0.9-0.8-1.4-1.2c-0.3-0.2-0.6-0.1-0.7,0.3
		C871.1,712.1,871.2,712.5,871.3,712.9z"/>
	<path fill="#FFFFFF" d="M873,728.7c-0.1,0.1-0.3,0.2-0.3,0.3c0.1,1,0.1,2,0.3,3.1c0.1,0.5,0.5,0.3,0.7,0.1c0.3-0.2,0.6-0.5,0.9-0.8
		c0.3-0.3,0.9-0.6,0.4-1.1C874.4,729.7,873.8,729,873,728.7z"/>
	<path fill="#FFFFFF" d="M1018.7,729.6c0-0.4,0.1-0.7-0.2-0.9c-0.3-0.2-0.6,0.1-0.8,0.3c-0.4,0.4-0.8,0.7-1.2,1.1
		c-0.2,0.2-0.4,0.5-0.2,0.8c0.5,0.5,1,1.3,1.6,1.3c0.8,0,0.4-1,0.6-1.5C1018.6,730.4,1018.6,730,1018.7,729.6z"/>
	<path fill="#FFFFFF" d="M1010.4,827.2c0-0.1,0.1-0.7-0.1-0.8c-0.5-0.4-0.8,0.2-1.1,0.5c-0.2,0.2-0.5,0.4-0.7,0.6
		c-0.5,0.4-0.6,0.9,0,1.3c0.5,0.3,0.8,1.2,1.5,0.9c0.3-0.1,0.2-1,0.3-1.5C1010.3,827.9,1010.4,827.7,1010.4,827.2z"/>
	<path fill="#FFFFFF" d="M880.9,827.6c0,0.2,0,0.3,0,0.5c0.2,0.6-0.3,1.5,0.5,1.6c0.6,0.1,1.1-0.6,1.5-1.1c0.7-0.9-0.4-1.2-0.8-1.6
		c-0.2-0.3-0.6-0.7-1-0.6C880.7,826.6,881,827.2,880.9,827.6z"/>
	<path fill="#151D38" d="M998.6,118.2c1.3,0.9,2.8,1.2,4.2,1.7c2.9,1.1,2.5,0.8,1.5,3.5c-2,5.4-4,10.8-6,16.2
		c-0.7,1.9-1.4,3.8-2.1,5.6c-0.3,0.8-0.3,1.4,0.8,1.3c0.6,0,1.3,0,1.9,0c24.5,0,49,0,73.4,0c0.6,0,1.1,0,1.7,0c1.6,0,1.9,0.4,1.7,2
		c-0.1,0.6-0.3,0.9-0.9,0.9c-0.7,0-1.4,0-2.2,0c-24.4,0-48.8,0-73.2,0c-0.9,0-2.2-0.5-2.6,0.4c-0.3,0.7,1,1.3,1.6,1.9
		c16.9,16.3,33.9,32.6,50.8,48.9c2.8,2.7,2.8,2.7-0.1,5.3c-13.4,11.9-26.8,23.8-40.2,35.7c-2.1,1.9-2.4,1.9-4.5-0.2
		c-4.1-4.1-8.2-8.1-12.3-12.2c-0.3-0.3-0.6-0.9-1.1-0.6c-0.2,0.1-0.1,0.7-0.1,1.1c0.8,20.1,1.7,40.1,2.5,60.2
		c0.6,13.5,1.1,27,1.6,40.5c0.4,8.8,0.6,17.6,1.1,26.4c0.2,3.5,0.3,7,0.4,10.5c0.1,2.4,0.1,2.4-2.3,3.2c-12.5,4.4-25.4,7.7-38.5,10
		c-15.3,2.6-30.6,3.8-46.1,3.3c-22.7-0.6-44.8-4.3-66.4-11.3c-0.3-0.1-0.6-0.2-0.9-0.3c-1.4-0.3-1.9-1.1-1.9-2.6
		c0-3.8-0.1-7.5-0.1-11.3c-0.3-26.1-0.6-52.3-1-78.4c-0.2-15.2-0.4-30.4-0.7-45.6c0-0.2,0-0.3,0-0.5c-0.1-0.6,0.4-1.4-0.4-1.7
		c-0.5-0.2-0.9,0.6-1.3,0.9c-4.2,4.3-8.4,8.5-12.7,12.8c-1.7,1.7-2.2,1.7-3.9,0c-12.9-12.4-25.8-24.9-38.7-37.3
		c-1.8-1.7-1.8-2.1,0-3.9c13.4-13.6,26.7-27.1,40.1-40.7c3.9-3.9,7.7-7.9,11.6-11.8c0.3-0.3,0.7-0.7,1-1.1c0.6-0.9,0.2-1.8-0.8-1.9
		c-0.5-0.1-1.1,0-1.7,0c-24.4,0-48.8,0-73.2,0c-0.3,0-0.6,0-1,0c-1.7,0.1-1.8,0.1-1.8,1.7c0,4.5,0,9,0,13.4c0,3.9,0,3.9-3.9,3.9
		c-4.1,0-4.1,0-4.1-4c0-4.4,0-8.8,0-13.2c0-1.8,0-1.9-1.9-1.9c-2.6,0-5.3,0-7.9,0c-1.7,0-1.7,0.1-1.7,1.8c0,4.8,0,9.6,0,14.4
		c0,0.6,0,1.1,0,1.7c0,0.8-0.2,1.2-1.1,1.2c-1.9,0-3.8,0-5.8,0c-0.7,0-1-0.3-1-1c0-0.8,0-1.6,0-2.4c0-4.3,0-8.6,0-13
		c0-3,0-2.7-2.8-2.7c-0.2,0-0.3,0-0.5,0c-39.2,0-78.4,0-117.6,0c-3.2,0-3.1-0.6-3.1,3.1c0,0.4,0,0.8,0,1.2c0,0.7,0.4,1,1.1,0.8
		c0.7-0.2,1.4-0.5,2-0.7c3.2-1.1,3.4-1.1,4.5,2.1c2.7,7.7,5.4,15.4,8.2,23.1c5,14,10,28,14.8,42c2.6,7.4,0.9,14-4.6,19.6
		c-1.8,1.8-4,3-6.3,3.8c-8.7,3.1-17.5,6.2-26.2,9.2c-8.8,3.1-17.9-0.4-22.4-8.5c-0.9-1.6-0.9-1.6-2.7-1c-4.2,1.5-8.5,1.4-12.7-0.2
		c-8.7-3.3-17.3-6.6-25.9-10c-12.6-5-16-20.3-6.6-29.9c5.3-5.5,12-6.6,19.3-4.4c2.4,0.7,4.6,1.7,7,2.6c2.1,0.8,2.1,0.8,2.9-1.3
		c5.1-13.4,10.3-26.7,15.4-40.1c0.6-1.6,1.2-3.3,1.9-4.9c0.5-1.3,0.7-2.7,2.5-3.2c0.9-0.2,0.4-1.5,0.4-2.4c0-0.9-0.8-0.9-1.4-0.9
		c-0.6,0-1.1,0-1.7,0c-43.3,0-86.6,0-129.8,0c-3.4,0-3-0.3-3,3.1c0,4.7,0,9.4,0,14.2c0,1.7-0.1,1.7-1.7,1.8c-1.5,0-3,0-4.6,0
		c-1.7,0-1.7-0.1-1.7-1.8c0-4.6,0-9.3,0-13.9c0-3.8,0.3-3.3-3.3-3.3c-2.2,0-4.3,0.1-6.5,0c-1.3,0-1.7,0.5-1.6,1.7
		c0,4.4,0,8.8,0,13.2c0,0.8,0,1.6,0,2.4c-0.1,1.7-0.1,1.8-1.7,1.8c-1.5,0-3-0.1-4.6,0c-1.2,0.1-1.7-0.4-1.7-1.6
		c0.1-3.6,0-7.2,0-10.8c0-1.7-0.1-3.4,0-5c0.1-1.3-0.5-1.7-1.7-1.6c-0.6,0.1-1.3,0-1.9,0c-37,0-73.9,0-110.9,0c-0.6,0-1.3,0-1.9,0
		c-1.6-0.1-1.9-0.4-1.7-2c0.1-0.7,0.5-0.9,1.1-0.9c0.7,0,1.4,0,2.2,0c37.3,0,74.6,0,111.8,0c3.3,0,3,0.4,3-2.9c0-8.5,0-17,0-25.4
		c2.6,0,5.1,0,7.7,0c0.4,1,0.2,2.1,0.2,3.1c0,7.8,0,15.5,0,23.3c0,1.9,0,2,2,2c2.5,0,5,0,7.4,0c2,0,2,0,2-2c0-7,0-13.9,0-20.9
		c0-1.8,0.2-3.7-0.1-5.5c2.7,0,5.4,0,8.2,0c0,8.5,0,17,0,25.4c0,3.3-0.4,2.9,3,2.9c31.9,0,63.8,0,95.7,0c11.7,0,23.4,0,35,0
		c2.2,0,2.2,0,2.2-2.2c0-7.4,0-14.9,0-22.3c0-1.3,0.1-2.6-0.1-3.8c2.7,0,5.4,0,8.2,0c0,8.9,0,17.7,0,26.6c0,0.2,0,0.5,0,0.7
		c0,0.7,0.2,1.1,1,1.1c3.2,0,6.4,0,9.6,0c0.7,0,1-0.4,1-1c0-0.6,0-1.3,0-1.9c0-8.5,0-16.9,0-25.4c2.6,0,5.1,0,7.7,0
		c0.3,0.6,0.2,1.2,0.2,1.9c0,7.9,0,15.8,0,23.7c0,3.1-0.1,2.7,2.7,2.7c24.8,0,49.6,0,74.4,0c14.9,0,29.7,0,44.6,0
		c2.2,0,2.3,0,2.3-2.2c0-6.6,0-13.3,0-19.9c0-2.1-0.2-4.2,0.1-6.2c2.6,0,5.1,0,7.7,0c0,1,0.1,1.9,0.1,2.9c0,7.9,0,15.8,0,23.7
		c0,1.7,0,1.8,1.7,1.8c2.7,0,5.4,0,8.1,0c1.2,0,1.7-0.2,1.7-1.6c-0.1-8.9-0.1-17.9-0.1-26.8c2.7,0,5.4,0,8.2,0c0,7.4,0,14.7,0,22.1
		c0,1.6,0.1,3.2,0,4.8c-0.1,1.2,0.5,1.6,1.6,1.5c0.4,0,0.8,0,1.2,0c24.1,0,48.2,0,72.2,0c0.5,0,1,0,1.4,0c0.8,0,1.2-0.2,1-1.1
		c-0.1-0.4-0.2-0.8-0.3-1.2c-1.6-6.4-3.3-12.8-4.9-19.3c-0.2-0.9-0.4-1.9-0.7-2.8c-0.2-0.7,0.1-1,0.8-1.2c1.4-0.3,2.8-0.7,4.2-1.1
		c2.2-0.6,2.2-0.6,2.8,1.6c2,7.7,3.9,15.3,5.9,23c0.6,2.3,0.1,2,2.7,2.1c0.3,0,0.6,0,1,0c46.6,0,93.1,0,139.7,0c0.2,0,0.5,0,0.7,0
		c2.7,0,2.2,0.2,3.1-2.1c0.9-2.4,1.8-4.8,2.6-7.2c2.4-6.4,4.8-12.7,7.1-19.1C998.3,118.2,998.5,118.2,998.6,118.2z"/>
	<path fill="#AEDEF8" d="M990.7,291.6C990.7,291.6,990.7,291.6,990.7,291.6c-0.1-1.2-0.1-2.4-0.2-3.6c-0.5-10.9-0.9-21.9-1.4-32.8
		c-0.4-9.9-0.8-19.8-1.2-29.7c0-0.9-0.3-2,0.8-2.6c1.2-0.6,1.9,0.5,2.6,1.1c0.5,0.4,0.9,0.9,1.4,1.4c4.2,4.2,8.4,8.4,12.6,12.5
		c1.8,1.8,1.4,1.8,3.3,0.2c6.7-5.9,13.4-11.9,20.1-17.8c5.9-5.3,11.8-10.5,17.7-15.8c1.2-1,1.1-1.1,0.1-2.2
		c-0.2-0.2-0.5-0.5-0.7-0.7c-16.6-16-33.2-31.9-49.8-47.9c-2.2-2.1-2.2-2.1-3.4,0.9c-1.4,3.7-2.8,7.5-4.1,11.3
		c-0.4,1.2-1,1.4-2.1,0.9c-1.3-0.6-2.7-1-4-1.5c-1.6-0.6-1.6-0.6-1.1-2.2c0.8-2.3,1.7-4.6,2.6-7c0.5-1.3,1-2.7,1.5-4.1
		c0.3-0.9,0.1-1.2-0.9-0.9c-0.3,0.1-0.6,0.2-0.9,0.3c-9.6,3-19.4,5.5-29.3,7.2c-2.6,0.5-2.6,0.5-2.8,3.1
		c-1.4,19.6-19.3,36.3-41.7,33c-16.8-2.5-29.3-16-30.8-32.9c-0.1-1.4-0.5-1.9-1.9-2.1c-10.8-1.6-21.4-3.9-31.8-7
		c-2.2-0.7-2.3-0.6-1.6,1.7c1,3.8,1.9,7.6,2.9,11.4c0.3,1.1,0,1.6-1.1,1.8c-1.6,0.3-3.1,0.8-4.6,1.2c-1,0.3-1.5,0.1-1.7-1
		c-0.4-1.9-0.9-3.7-1.4-5.6c-0.5-2.1-1-4.2-1.6-6.3c-0.3-1.3-0.5-1.3-1.5-0.4c-0.6,0.5-1.1,1.1-1.7,1.7
		c-10.3,10.4-20.6,20.8-30.8,31.3c-5.5,5.6-11,11.2-16.5,16.7c-1.7,1.7-1.4,1.5,0.1,2.9c1.7,1.6,3.3,3.2,5,4.8
		c10.1,9.7,20.1,19.4,30.2,29.1c1.6,1.5,1.6,1.5,3.2,0c2.8-2.8,5.5-5.6,8.3-8.4c2.1-2.2,4.3-4.3,6.4-6.5c0.6-0.6,1.3-1,2.1-0.7
		c0.8,0.3,0.9,1.1,0.9,1.8c0,1.3,0.1,2.6,0.1,3.8c0.3,25.5,0.6,51,1,76.5c0.2,16.7,0.4,33.4,0.6,50.1c0,2.4-0.4,2.2,2.3,3.1
		c28.2,8.8,57,12.1,86.4,10.1c16.2-1.1,32-3.9,47.6-8.3c3.8-1.1,7.5-2.2,11.2-3.5c2.4-0.8,2.4-0.3,2.3-3.1c0-0.4,0-0.8,0-1.2
		c-0.5-12.5-1-24.9-1.5-37.4C991.5,309.7,991.1,300.6,990.7,291.6z"/>
	<path fill="#FFFFFF" d="M597.8,216.2c0.2,1.4-0.4,1.9-1.4,2.3c-3.1,1.1-6.2,2.2-9.3,3.3c-4.2,1.6-7.2,4.4-9.1,8.4
		c-0.8,1.7-0.7,1.8,1.1,1.7c0.2,0,0.5,0,0.7-0.1c7.3-0.8,13.6,1.4,18.9,6.3c2.6,2.4,4.5,5.2,5.7,8.5c0.4,1.1,0.9,1.3,1.9,0.9
		c2.7-1,5.4-2,8.1-2.9c0.8-0.3,1.1-0.7,0.8-1.6c-0.7-1.9-1.1-3.8-1.2-5.9c-0.5-10.1,4.6-18.6,13.8-23c1.1-0.5,1.6-0.9,1.1-2.3
		c-4.4-12.4-8.8-24.8-13.2-37.3c-0.5-1.5-0.6-1.5-2.2-1c-8.4,3-16.9,5.9-25.3,8.9c-2.2,0.8-2.2,0.4-1.3,3
		c3.4,9.6,6.8,19.1,10.2,28.7C597.4,215,597.7,215.7,597.8,216.2z"/>
	<path fill="#FFFFFF" d="M541.2,201.6c-2.6-0.1-5,0.5-7.3,1.7c-1.2,0.6-1.2,0.8-0.1,1.5c3.2,2,5.9,4.6,7.9,7.9
		c3.7,6.2,4.3,12.8,2.2,19.6c-0.5,1.7-0.5,1.8,1.1,2.4c2.4,0.9,4.8,1.9,7.1,2.8c1.7,0.6,1.7,0.6,2.4-1c3.9-8.4,10.5-13,19.7-14.1
		c1.9-0.2,4,0.5,5.7,0c1.7-0.6,3.1-2.2,4.9-2.9c0.1-0.1,0.3-0.1,0.4-0.2c0.8-0.3,1.3-0.8,1.6-1.7c1.2-3.4,2.5-6.7,3.9-10.1
		c0.3-0.9,0.3-1.6,0-2.5c-3.2-9-6.4-18.1-9.6-27.1c-0.4-1.1-1-1.7-2.1-2.1c-1.8-0.6-3.6-1.4-5.4-2c-2.7-1-2.7-1-3.7,1.7
		c-3.7,9.5-7.3,19.1-11,28.6c-0.9,2.4-1.3,2.6-3.7,1.6c-2.6-1-5.2-2-7.8-3C545.4,202,543.3,201.5,541.2,201.6z"/>
	<path fill="#FFFFFF" d="M912.4,149.5c-21.1,0-42.2,0-63.3,0c-0.6,0-1.3,0-1.9,0c-0.1,0-0.4,0-0.4,0.1c-0.1,0.3,0.2,0.4,0.4,0.5
		c0.4,0.1,0.8,0.2,1.1,0.3c15.9,4.6,32.2,7.3,48.8,8.5c13.3,0.9,26.7,0.6,40-0.8c13.3-1.4,26.4-3.9,39.2-7.6c0.6-0.2,1.5,0,1.8-0.9
		c-0.6,0-1.2-0.1-1.9-0.1C955,149.5,933.7,149.5,912.4,149.5z"/>
	<path fill="#FFFFFF" d="M917.2,381c7.2,0,15.7-0.4,24.1-1.4c16.9-1.9,33.4-5.5,49.5-10.9c3.3-1.1,3.2-1.1,2.9-4.5
		c-0.1-1.1-0.4-1.5-1.5-1c-0.4,0.2-0.8,0.2-1.1,0.4c-27.8,9.2-56.2,13.2-85.4,12c-18.4-0.8-36.4-3.6-54.1-8.6
		c-2.2-0.6-4.4-1.3-6.7-1.9c-0.4-0.1-1.1-0.4-1.2,0.3c-0.2,1.3-0.4,2.7,0.1,4c0.2,0.8,1.3,0.8,2.1,1
		C868.7,377.4,892,380.9,917.2,381z"/>
	<path fill="#004B62" d="M896,161.8c-0.3,0-0.6,0-1,0c-0.4,0-0.8-0.1-1.2-0.1c-1.7-0.1-1.7-0.1-1.5,1.7
		c1.8,14.1,16.6,23.4,30.2,18.8c9.1-3.1,14.3-9.6,15.9-19c0.4-2.4,0.1-2.3-2-2.1c-6,0.6-11.9,1.1-18,1.2
		C911.1,162.4,903.5,162.5,896,161.8z"/>
	<path fill="#FFFFFF" d="M915.5,192.2c9.7,0,18.6-4,25-11.3c4.9-5.6,7.7-12.1,8.2-19.5c0.1-1.6,0-1.6-1.5-1.5
		c-1.1,0.1-2.2,0.4-3.3,0.4c-2.1,0.1-2.1,0.3-2.3,2.5c-1.2,10.1-6.5,17.5-15.8,21.5c-9.3,4-18.3,2.7-26.5-3.4
		c-5.8-4.4-9.1-10.4-10-17.7c-0.2-1.8-0.1-1.8-2.2-2.1c-1.1-0.2-2.2-0.2-3.3-0.3c-1.8-0.2-1.8-0.2-1.6,1.5
		C884,179.3,898.3,192.2,915.5,192.2z"/>
	<path fill="#E8384A" d="M582.6,234.6c-1,0.1-2.1,0.1-3.1,0.2c-2.8,0.3-3.1,0.7-2.8,3.4c0.7,6.9,6.9,12.8,13.9,13.4
		c3.6,0.3,6.8-0.9,10-2.1c1.6-0.6,1.6-0.6,1-2.2C598.6,239.8,590.9,234.7,582.6,234.6z"/>
	<path fill="#E8384A" d="M542.1,224.2c-0.3-6.8-3.5-12.9-10.2-16.9c-2-1.2-2.1-1.1-3.5,0.7c-5.5,7.5-2.7,18.5,5.8,22.6
		c1.6,0.8,3.4,1.3,5.1,2.1c0.9,0.4,1.3,0.2,1.6-0.7C541.7,229.7,542.1,227.4,542.1,224.2z"/>
	<path fill="#E8384A" d="M633.5,227.4c0-2.3-1.5-8.1-2.6-10.2c-0.4-0.9-1-0.6-1.6-0.3c-2.6,1.1-4.9,2.7-6.7,4.9
		c-5.1,5.8-6.7,12.4-4.6,19.8c0.5,1.6,0.5,1.6,2.1,1.1c1.4-0.5,2.9-0.9,4.3-1.6C630.3,238.4,633.2,233.7,633.5,227.4z"/>
	<path fill="#E8384A" d="M566.7,242.1c2.1,0,3.9-0.3,5.5-0.9c1.2-0.4,1.8-1,1.6-2.4c-0.5-3.6,0.1-7.1,1.8-10.5
		c0.4-0.9,1.7-1.9,1.1-2.6c-0.7-0.8-2.1-0.1-3.2-0.1c-0.2,0-0.3,0-0.5,0c-7.4,1.3-12.7,5.4-15.8,12.2c-0.3,0.7-0.7,1.3,0.4,1.7
		C560.7,240.8,563.7,242.3,566.7,242.1z"/>
	<path fill="#E8384A" d="M614.1,169.9c-0.4-1.1-0.8-2.2-1.2-3.4c-0.3-1-0.8-1.1-1.8-0.8c-3.2,1.1-6.4,2.4-9.6,3.5
		c-5.1,1.7-10.1,3.5-15.1,5.3c-3.4,1.2-3.1,0.5-1.9,4c0.7,2,0.7,2,2.6,1.3c8.5-3,17-6,25.5-9c0.4-0.1,0.8-0.3,1.1-0.4
		C614,170.4,614.2,170.2,614.1,169.9z"/>
	<path fill="#FFFFFF" d="M596.8,164.4c0-0.5,0-1,0-1.4c0-2,0-2-1.8-1.4c-4.4,1.5-8.7,3.1-13.1,4.6c-1.1,0.4-1.7,0.8-1.1,2
		c0.5,1,0.8,2.1,1.1,3.2c0.3,1.1,0.9,1.3,2,0.9c3.3-1.2,6.6-2.4,9.9-3.6C597.3,167.5,596.8,168.3,596.8,164.4z"/>
	<path fill="#FFFFFF" d="M591.1,149.5c-1.5,0-3,0-4.5,0c-0.9,0-1.3,0.3-1.3,1.3c0,1.4,0.1,2.7,0,4.1c-0.1,1.1,0.4,1.6,1.4,1.9
		c1.6,0.5,3.2,1.1,4.7,1.8c1.9,1,3.4-0.1,5-0.6c0.5-0.2,0.5-0.8,0.5-1.2c0-1.9,0-3.8,0-5.7c0-1-0.3-1.5-1.4-1.4
		C594,149.5,592.6,149.5,591.1,149.5z"/>
	<path fill="#FFFFFF" d="M604.8,161.2c0,0.8,0,1.6,0,2.4c0,0.8,0.2,1.2,1.1,0.9c1.6-0.6,3.1-1.1,4.7-1.7c0.6-0.2,0.8-0.5,0.6-1.1
		c-0.5-1.5-1-3-1.6-4.5c-0.2-0.5-0.5-0.6-1.1-0.5C605.2,157.4,604.8,157.9,604.8,161.2z"/>
	<path fill="#E8384A" d="M578.3,172.4c0.8-0.1,0.7-0.4,0.6-0.9c-0.5-1.4-1-2.8-1.5-4.2c-0.3-0.9-1.6-1.9-2.7-2c-1.1,0-1,1.1-1.3,1.7
		c-0.3,0.6-0.5,1.3-0.8,2c-0.1,0.4-0.3,0.9,0.2,1.1C574.6,170.9,576.5,171.7,578.3,172.4z"/>
	<path fill="#FFFFFF" d="M591.2,217.2c0.8-0.3,1.7-0.7,2.7-1c0.5-0.2,0.5-0.5,0.4-1c-0.4-1.1-0.8-2.3-1.2-3.4
		c-0.2-0.4-0.5-0.5-0.6-0.1c-0.7,1.6-1.3,3.3-1.9,4.9C590.3,217,590.5,217.2,591.2,217.2z"/>
	<path fill="#FFFFFF" d="M577.3,160.3C577.3,160.3,577.3,160.3,577.3,160.3c0-0.6,0-1.1,0-1.7c0-0.2-0.1-0.5-0.2-0.6
		c-0.3-0.1-0.4,0.2-0.5,0.4c-0.4,1-0.8,1.9-1.1,2.9c-0.4,1,0.3,1.3,1,1.4c0.9,0.2,0.8-0.5,0.9-1
		C577.3,161.3,577.3,160.8,577.3,160.3z"/>
	<path fill="#FFFFFF" d="M585.7,161.5c0.8,0,2.4-0.8,2.3-0.9c-0.6-0.6-1.4-0.8-2.1-1c-0.6-0.1-0.5,0.5-0.5,0.8
		C585.3,160.9,585.1,161.5,585.7,161.5z"/>
	<path fill="#151D38" d="M579.8,551.2c47.7,0,88.8,33.4,98.5,79.6c11.2,53.3-22.1,105.8-75.1,118.4c-7.2,1.7-14.5,2.6-21.9,2.6
		c-2.5,0-2.6-0.4-2.5,2.6c0,1.2,0.1,2.4,0,3.6c-0.3,4.2-3.4,7.2-7.5,7.1c-4,0-7.2-3.1-7.4-7.3c-0.1-2,0-4,0-6c0-0.8-0.2-1.4-1.1-1.5
		c-1.5-0.3-1.9-0.1-1.9,1.5c0,5.2,0,10.4,0,15.6c0,1,0,2.1-0.3,3.1c-1,3.6-4.3,5.7-8.1,5.4c-3.7-0.4-6.5-3.3-6.6-7.1
		c-0.1-5,0-9.9,0-14.9c0-1,0-1.9,0-2.9c-0.1-0.9-0.7-1.5-1.6-1.4c-0.8,0.1-1.3,0.6-1.3,1.5c0,1.7,0,3.4,0,5
		c-0.2,3.9-2.6,6.7-6.3,7.4c-3.9,0.7-7.8-2-8.5-6c-0.2-1.1-0.2-2.2-0.2-3.3c0-4.8-0.1-9.6,0-14.4c0-1.8-0.5-2.8-2.1-3.9
		c-22.5-14.8-37.3-35.2-43.5-61.5c-12.9-54.9,21.5-107.9,74.4-120.5C564.6,552.1,572.4,551.3,579.8,551.2z"/>
	<path fill="#CED8DC" d="M482.8,651.3c0.1,5.7,0.4,11.3,1.4,16.7c5,27,18.7,48.3,41.2,64c0.5,0.4,1.1,0.7,1.6,1.1
		c0.5,0.3,0.9,0.2,1-0.5c0-0.6,0-1.3,0-1.9c0-5.9-0.1-11.8,0-17.8c0-1.9-0.6-3.2-1.9-4.6c-21.2-21.1-28.9-46.5-22-75.5
		c9.7-40.8,49.9-66.2,91.1-58.3c39.5,7.6,69.2,45.3,62.5,88.9c-4.1,26.4-18.7,45.8-42.4,58.2c-10.7,5.6-22.2,8.1-34.2,8.3
		c-2.2,0-2.2,0.1-2.2,2.3c0,4.7,0,9.4,0,14.2c0,2.4,0,2.4,2.3,2.4c7.1,0,14.2-0.9,21.1-2.5c51.8-12.2,84.2-63.6,72.9-115.7
		c-11-50.6-61.3-86.1-116.3-74.1C515.9,566,483.1,604.2,482.8,651.3z"/>
	<path fill="#FFFFFF" d="M580.2,576.1c-4.8,0-9.6,0.4-14.3,1.4c-27.5,6-46.3,22.2-56.7,48.3c-0.3,0.7-0.5,1.5-0.5,2.3
		c0.2,7.1,5.8,12.8,12.9,13c6.8,0.2,12.7-5.1,13.4-12.1c0-0.3,0-0.6,0.1-1c0.1-0.9,0.6-1.5,1.6-1.5c0.8,0,1.3,0.6,1.3,1.4
		c0.1,0.8,0.2,1.6,0.3,2.4c1.1,6.2,6.4,10.6,12.6,10.8c6,0.2,11.5-4.1,12.9-10.1c0.2-0.9,0.3-1.7,0.4-2.6c0.1-1,0.4-1.8,1.4-1.9
		c1.1-0.1,1.5,0.7,1.5,1.7c0.1,0.8,0.2,1.6,0.3,2.4c1.3,6.1,6.7,10.5,12.9,10.5c6.1-0.1,11.4-4.4,12.7-10.4c0.2-0.9,0.3-1.9,0.4-2.8
		c0.1-0.8,0.6-1.3,1.5-1.3c0.8,0,1.3,0.5,1.4,1.3c0.1,0.5,0,1,0.1,1.4c0.8,6.7,6.3,11.7,13,11.8c6.4,0.1,11.9-4.7,13-11.2
		c0.1-0.7,0.2-1.4,0.3-2.1c0.1-0.7,0.6-1.2,1.3-1.2c0.8-0.1,1.4,0.4,1.5,1.2c0.1,0.5,0.1,1.1,0.2,1.7c0.7,6,5.4,10.8,11.4,11.5
		c6,0.8,11.8-2.7,13.9-8.4c0.9-2.3,1-4.6,0.1-7C640.2,596,611.8,576.1,580.2,576.1z"/>
	<path fill="#7DA6ED" d="M655.3,651.7c0-2.3,0.1-4.6,0-6.9c-0.2-2.4-0.6-4.8-1-7.1c-0.2-0.8,0.1-2.1-0.8-2.3
		c-0.7-0.1-0.9,1.1-1.4,1.8c-6.4,9.3-20.1,9.4-26.5,0.2c-0.3-0.5-0.6-0.9-0.9-1.4c-0.3-0.5-0.7-0.6-1,0c-0.2,0.4-0.5,0.8-0.8,1.2
		c-6.5,9.4-20.2,9.4-26.7,0c-0.2-0.3-0.5-0.7-0.6-1c-0.5-0.9-0.9-0.7-1.3,0c-0.8,1.5-1.9,2.8-3.2,3.9c-7.5,6.7-18.7,5.1-24.4-3.4
		c-1-1.5-1-1.5-1.9-0.1c-0.1,0.1-0.2,0.3-0.3,0.4c-6.5,9.6-20.3,9.6-26.8,0c-0.3-0.4-0.5-0.8-0.8-1.2c-0.3-0.6-0.6-0.3-0.9,0
		c-0.4,0.5-0.7,1.1-1,1.6c-4,5.2-9.2,7.5-15.8,6.5c-5.3-0.8-9.1-3.8-11.6-8.4c-0.2-0.3-0.3-0.9-0.7-0.8c-0.4,0.1-0.4,0.6-0.5,1
		c-0.7,3.3-1.2,6.6-1.5,10c-0.5,5.9-0.2,11.8,0.7,17.7c0.2,1,0.5,1.2,1.4,0.7c1.5-0.9,3.1-1.7,4.6-2.6c1.6-0.9,2.1-0.7,3.1,0.9
		c4.2,7.4,10.7,10.7,19.1,10.6c5.5-0.1,10.8-1.4,15.9-3.1c1.6-0.5,2.5-1.4,3.2-3.1c3-7.6,8.6-12.2,16.7-13.5
		c8.3-1.3,15.2,1.4,20.3,8.1c3.5,4.6,5.8,9.9,8.7,14.9c0.6,1,0.3,1.8-0.7,2.4c-0.6,0.4-1.3,0.7-1.9,1.1c-12.5,7-25,14-37.5,21
		c-6.7,3.7-13.4,7.5-20.1,11.2c-1.9,1.1-1.9,1.1-0.2,2.2c4.9,3.3,10.2,6,15.8,8.1c7.6,2.8,15.5,4.4,23.7,4.6c1.6,0,1.6,0,1.4-1.6
		c0-0.3-0.2-0.6-0.2-0.9c-0.7-6.5,1.1-12.1,6.1-16.3c5.7-4.8,12.4-5.6,19.4-3.1c2.3,0.8,4.5,1.7,6.7,2.6c0.8,0.3,1.4,0.2,1.7-0.7
		c0.1-0.5,0.3-0.9,0.5-1.3c5-13,10-26,15-38.9c0.9-2.4,1.8-4.8,2.8-7.1c0.6-1.5,1.1-1.7,2.6-1.2c0.6,0.2,1.2,0.4,1.8,0.7
		c5.7,2.2,11.5,4.4,17.2,6.6c1.6,0.6,1.6,0.6,2-1.1C655.3,660.1,655.6,655.9,655.3,651.7z"/>
	<path fill="#AEDEF8" d="M531,735.2c0,6.4,0,12.8,0,19.2c0,0.8,0,1.6,0.1,2.4c0.3,2.1,2,3.6,4.1,3.7c2.2,0.1,4.1-1.2,4.6-3.4
		c0.2-0.8,0.2-1.7,0.2-2.6c0.1-1.4,0-2.9,0.1-4.3c0.3-2.2,2.2-3.7,4.4-3.7c2.3,0,4.1,1.7,4.4,4c0.1,0.7,0.1,1.4,0.1,2.2
		c0,4.8,0,9.6,0,14.4c0,0.8,0,1.6,0.2,2.4c0.5,2.1,2.2,3.5,4.3,3.5c2.2,0,4-1.4,4.4-3.6c0.1-0.7,0.1-1.4,0.1-2.1
		c0-6.7,0-13.4,0-20.2c0-0.6,0-1.3,0-1.9c0.3-2.1,1.9-3.7,4-3.9c2.2-0.2,4.1,1.1,4.7,3.2c0.3,0.9,0.3,1.7,0.3,2.6c0,3.3,0,6.6,0,9.8
		c0,3.3,1.8,5.4,4.5,5.4c2.7,0,4.4-2.1,4.4-5.5c0-7.7,0-15.4,0-23c0-3.8,0-3.8-3.7-4.1c-0.2,0-0.5,0-0.7-0.1
		c-14.2-1.7-27.1-6.7-38.5-15.3c-0.3-0.2-0.6-0.5-1-0.7c-0.5-0.4-0.9-0.3-0.9,0.4c0,0.6,0,1.1,0,1.7C531,722.1,531,728.7,531,735.2z
		"/>
	<path fill="#FFFFFF" d="M597.2,706.6c-2.5-0.1-4.8,0.5-7,1.6c-1.4,0.7-1.5,0.9-0.1,1.8c4.1,2.6,7.1,6.1,9.1,10.5
		c0.6,1.2,0.4,3,1.7,3.4c1.2,0.4,2.6-0.6,3.9-1c18.3-6.5,32.2-18.3,41.6-35.3c1-1.9,1-1.9-0.9-2.6c-5.7-2.2-11.3-4.4-17-6.6
		c-1.1-0.4-1.8-0.5-2.1,0.9c-0.1,0.4-0.3,0.7-0.4,1.1c-3.7,9.6-7.4,19.2-11.1,28.8c-0.9,2.4-1.3,2.6-3.7,1.6c-2.7-1-5.4-2.1-8-3.1
		C601.2,707,599.2,706.5,597.2,706.6z"/>
	<path fill="#E8384A" d="M517.2,681c5.1-0.1,8.8,4.5,7.7,9.5c-0.6,2.5-2,4.3-4.3,5.4c-1,0.5-0.9,0.9-0.3,1.6
		c1.1,1.3,2.2,2.7,3.4,4.1c1.7,1.9,1.3,1.8,3.5,0.6c8.4-4.7,16.9-9.4,25.3-14.2c0.5-0.3,1-0.6,1.5-0.8c0.9-0.4,0.9-1,0.4-1.7
		c-0.9-1.6-1.7-3.3-2.2-5c-0.6-2.2-0.9-4.4-0.8-6.6c0-0.8-0.2-1.2-1.1-0.8c-0.4,0.2-0.9,0.3-1.4,0.5c-5.7,1.8-11.4,2.9-17.4,2.6
		c-6.7-0.3-12.2-3-16.6-8c-0.9-1.1-1.4-3.1-2.7-3.1c-1.3,0-2.7,1.2-4,2c-0.2,0.1-0.4,0.3-0.6,0.4c-0.8,0.4-1,1-0.8,1.8
		c1.1,4.5,2.6,8.9,4.4,13.1c0.4,1,0.9,0.9,1.6,0.3C514.1,681.5,515.6,681,517.2,681z"/>
	<path fill="#FFFFFF" d="M573.8,656c-15.1,0.1-23.9,15.2-17.1,27.5c0.9,1.5,0.9,1.6,2.3,0.8c9.8-5.5,19.6-11,29.5-16.5
		c1.1-0.6,1.3-1.1,0.6-2.2C585.4,659.4,580,656.2,573.8,656z"/>
	<path fill="#FFFFFF" d="M533.9,711c0.7-0.4,1.4-0.7,2.1-1.1c18.7-10.5,37.4-20.9,56-31.4c0.6-0.3,1.1-0.6,1.7-0.9
		c1.5-0.9,1.5-0.9,0.7-2.3c-0.8-1.4-1.6-2.8-2.3-4.2c-0.5-1.1-1.1-1.5-2.2-0.7c-0.3,0.2-0.7,0.4-1,0.6c-19.7,11-39.4,22.1-59.2,33.1
		c-0.5,0.3-1,0.6-1.5,0.8c-0.7,0.4-0.7,0.8-0.1,1.3c1.6,1.4,3.2,2.8,4.9,4.3C533.3,710.7,533.6,710.8,533.9,711z"/>
	<path fill="#E8384A" d="M585,726.9c3.8-0.2,7.4-0.8,11.1-1.6c0.7-0.2,1.5-0.3,1.1-1.4c-1.8-5.5-5.2-9.6-10.3-12.3
		c-0.7-0.4-1.1-0.2-1.7,0.3c-3,2.9-4.5,9.9-3.1,13.9c0.3,0.7,0.6,1.1,1.4,1C584,726.8,584.5,726.9,585,726.9z"/>
	<path fill="#FFFFFF" d="M651.1,674.9c0.8,0.1,0.9-0.4,1.1-0.9c0.4-1.2,0.6-2.5,1.1-3.7c0.3-1,0.1-1.4-0.9-1.8
		c-5.9-2.2-11.8-4.5-17.6-6.8c-1-0.4-1.5-0.3-1.8,0.7c-0.3,1.1-0.8,2.1-1.2,3.1c-0.6,1.5-0.6,1.6,1,2.2c5.8,2.2,11.6,4.5,17.4,6.7
		C650.5,674.7,650.9,674.9,651.1,674.9z"/>
	<path fill="#E8384A" d="M650.5,678.7c0-1.1-0.9-1.1-1.5-1.3c-5.3-2.1-10.6-4.1-15.8-6.1c-3.3-1.3-3.3-1.3-4.5,2.1
		c-0.5,1.5-0.6,1.6,1,2.2c5.8,2.2,11.6,4.5,17.4,6.7c0.3,0.1,0.6,0.2,0.9,0.3c0.4,0.1,0.8,0,1-0.4
		C649.6,681,650.1,679.9,650.5,678.7z"/>
	<path fill="#CED8DC" d="M563.9,746.3c0-1.3-0.6-2.1-1.5-2.1c-0.8,0-1.5,0.8-1.5,1.8c0,0.8,0.9,1.3,2.2,1.3
		C564,747.4,563.8,746.8,563.9,746.3z"/>
	<path fill="#151D38" d="M468.3,829.7c-6.7,0-13.4,0-20.1,0c-4.8,0-8.6-2.6-9.8-7c-1-3.6-1-7.3,0-10.9c1.1-4.1,4.1-6.3,8.3-7
		c0.9-0.1,1.9-0.2,2.9-0.2c12.5,0,24.9,0,37.4,0c1.3,0,2.6,0.1,3.8,0.4c4.3,1,7.6,4.8,7.8,9.2c0.1,1.8,0.1,3.7,0,5.5
		c-0.1,5.6-4.2,9.8-9.9,9.9c-5.1,0.1-10.2,0-15.3,0C471.6,829.7,469.9,829.7,468.3,829.7z M468.2,826.7c6.6,0,13.3-0.1,19.9,0
		c3.8,0.1,7.7-3.1,7.5-7.6c-0.1-1.5,0-3,0-4.6c-0.2-3.7-2.8-6.4-6.5-6.8c-0.8-0.1-1.6-0.1-2.4-0.1c-12.3,0-24.6,0-36.9,0
		c-0.9,0-1.8,0-2.6,0.1c-3.5,0.4-6.1,3.2-6.3,6.7c-0.1,1.2,0.1,2.4,0,3.6c-0.5,5.3,3.4,8.8,8.4,8.6
		C455.5,826.5,461.8,826.7,468.2,826.7z"/>
	<path fill="#151D38" d="M498.5,520.1c0,6.4-4.9,11.4-11.3,11.5c-6.4,0-11.4-5-11.4-11.4c0-6.3,4.9-11.3,11.2-11.3
		C493.5,508.8,498.5,513.7,498.5,520.1z"/>
	<path fill="#A5D0B7" d="M495.6,520.1c0-4.6-3.8-8.4-8.4-8.4c-4.6,0-8.4,3.8-8.4,8.4c0,4.6,3.9,8.4,8.4,8.4
		C491.8,528.5,495.6,524.7,495.6,520.1z"/>
	<path fill="#151D38" d="M449.3,531.5c-6.4,0.1-11.4-4.9-11.5-11.3c0-6.3,4.8-11.3,11.1-11.4c6.4-0.1,11.5,4.8,11.6,11.2
		C460.6,526.4,455.7,531.5,449.3,531.5z"/>
	<path fill="#E8384A" d="M449.2,528.6c4.6,0,8.4-3.8,8.4-8.4c0-4.5-3.9-8.4-8.4-8.4c-4.6,0-8.4,3.8-8.4,8.4
		C440.8,524.8,444.6,528.6,449.2,528.6z"/>
	<path fill="#151D38" d="M563.3,809.6c-0.2,3.7-1.9,6.6-5.3,8.2c-3.6,1.7-7.1,1.3-10.1-1.3c-2.8-2.4-3.9-5.5-3-9.3
		c0.4-1.3,0.9-2.6,1.4-3.8c1.7-3.8,3.8-7.4,6-10.9c1-1.7,2.1-1.7,3.1-0.1c2.8,4.5,5.5,9,7.3,14C563.1,807.4,563.4,808.5,563.3,809.6
		z"/>
	<path fill="#AEDEF8" d="M553.9,815.7c4.3,0,7.3-3.9,6-8c-1.2-4-3.4-7.6-5.5-11.2c-0.3-0.5-0.7-0.7-1-0.1c-2.1,3.7-4.4,7.3-5.6,11.4
		C546.8,811.8,549.8,815.7,553.9,815.7z"/>
	<path fill="#151D38" d="M781.7,806.2c0,5.1,0,10.2,0,15.3c0,1.8-0.4,2.5-1.4,2.6c-1,0-1.5-0.7-1.5-2.5c0-10.3,0-20.6,0-30.9
		c0-1.8,0.5-2.5,1.5-2.5c1,0,1.4,0.8,1.4,2.6C781.7,796,781.7,801.1,781.7,806.2z"/>
	<path fill="#151D38" d="M794.4,806.3c0,4.9,0,9.7,0,14.6c0,0.6,0,1.3-0.1,1.9c-0.1,0.8-0.6,1.3-1.4,1.3c-0.8,0-1.3-0.5-1.5-1.3
		c-0.1-0.5-0.1-1.1-0.1-1.7c0-10,0-20,0-29.9c0-0.5,0-1,0-1.4c0.1-0.9,0.6-1.5,1.6-1.4c0.8,0,1.3,0.6,1.3,1.4
		c0.1,0.6,0.1,1.3,0.1,1.9C794.4,796.5,794.4,801.4,794.4,806.3z"/>
	<path fill="#151D38" d="M766.1,806.1c0-5,0-10.1,0-15.1c0-2,0.5-2.8,1.6-2.7c1,0.1,1.5,0.8,1.5,2.6c0,10.2,0,20.4,0,30.7
		c0,0.4,0,0.8-0.1,1.2c-0.2,0.8-0.6,1.3-1.4,1.4c-1,0-1.4-0.6-1.5-1.5c-0.1-0.6,0-1.3,0-1.9C766.1,815.8,766.1,810.9,766.1,806.1z"
		/>
	<path fill="#151D38" d="M641.8,435.8c0-6,4.8-10.8,10.9-10.8c5.9,0,10.9,4.9,10.9,10.8c0,6-5.1,11-11,10.9
		C646.5,446.7,641.7,441.8,641.8,435.8z"/>
	<path fill="#7DA6ED" d="M652.5,443.7c4.4,0,7.9-3.5,7.9-7.9c0-4.3-3.5-7.7-7.8-7.7c-4.4,0-7.8,3.3-7.9,7.6
		C644.7,440.2,648.1,443.7,652.5,443.7z"/>
	<path fill="#151D38" d="M671.2,407.5c4.7,0,8.4,3.6,8.5,8.3c0.1,4.7-3.8,8.6-8.5,8.6c-4.6,0-8.4-3.9-8.4-8.5
		C662.8,411.3,666.5,407.6,671.2,407.5z"/>
	<path fill="#7DA6ED" d="M676.6,415.8c0-2.9-2.4-5.3-5.3-5.3c-3,0-5.5,2.5-5.4,5.5c0,2.9,2.4,5.3,5.3,5.4
		C674.2,421.4,676.6,418.9,676.6,415.8z"/>
	<path fill="#151D38" d="M664.6,396.4c0,2.9-2.5,5.3-5.4,5.3c-2.9,0-5.3-2.4-5.3-5.4c0-3.1,2.5-5.5,5.5-5.4
		C662.4,391,664.6,393.4,664.6,396.4z"/>
	<path fill="#7DA6ED" d="M661.6,396.2c0-1.2-1.1-2.2-2.4-2.2c-1.3,0-2.3,1-2.4,2.2c0,1.3,1.1,2.4,2.5,2.4
		C660.6,398.5,661.6,397.5,661.6,396.2z"/>
	<path fill="#151D38" d="M680,438.5c0,2.2-1.8,3.9-4,3.9c-2.2,0-3.9-1.8-3.8-4c0-2.2,1.8-3.9,4-3.9C678.3,434.5,680,436.3,680,438.5
		z"/>
	<path fill="#7DA6ED" d="M676.9,438.5c0-0.6-0.3-0.9-0.9-0.9c-0.5,0-0.9,0.3-0.9,0.9c0,0.4,0.3,0.7,0.7,0.8
		C676.5,439.3,676.8,439.1,676.9,438.5z"/>
	<path fill="#151D38" d="M683.3,383.4c-0.1,1.8-1.5,3.1-3.2,3.1c-1.7-0.1-3.1-1.5-3.1-3.3c0.1-1.8,1.5-3.1,3.3-3
		C682.1,380.2,683.4,381.6,683.3,383.4z"/>
	<path fill="#151D38" d="M731,444.7c-4.2,0-8.5-1.3-12.3-4.1c-8.7-6.4-8.9-17.9-0.5-24.6c7.6-6.1,19.6-6,27.1,0.4
		c7.5,6.3,7.6,16.8,0.3,23.2C741.6,443.1,736.8,444.7,731,444.7z"/>
	<path fill="#FFFFFF" d="M731.6,441.7c4.4-0.1,8.5-1.3,12-4.4c6-5.3,5.9-13.4-0.2-18.6c-6.5-5.5-16.9-5.6-23.5-0.2
		c-6.5,5.4-6.5,14.1,0.2,19.4C723.4,440.5,727.3,441.6,731.6,441.7z"/>
</g>
</svg>
